<svg xmlns="http://www.w3.org/2000/svg" viewBox="0 0 912 689.88" width="912" height="689.88" font-family="Microsoft YaHei, PingFang SC, Noto Sans SC, Hiragino Sans GB, sans-serif" fill="#1f2933" role="img" aria-label="试探频率不匹配与匹配时平面轨迹重心的差别">
<rect width="912" height="689.88" fill="#ffffff"/>
<text x="40" y="75.88" font-size="46" font-weight="700" fill="#1f2933" text-anchor="start"><tspan x="40" dy="0">试探频率对不对，</tspan><tspan x="40" dy="58">看重心跑不跑得出去</tspan></text><text x="48" y="207.88" font-size="38" font-weight="700" fill="#0878b9" text-anchor="start">用 6.25 Hz 去试</text><rect x="40.0" y="225.9" width="403.0" height="300.0" rx="10" fill="#fff" stroke="#d7dfe6" stroke-width="1" opacity="1"/><line x1="54.0" y1="375.9" x2="429.0" y2="375.9" stroke="#d7dfe6" stroke-width="2" stroke-linecap="round"/><line x1="241.5" y1="239.9" x2="241.5" y2="511.9" stroke="#d7dfe6" stroke-width="2" stroke-linecap="round"/><polyline points="347.0,375.9 346.7,382.8 345.8,389.6 344.3,396.3 342.2,402.9 339.7,409.2 336.5,415.2 332.9,421.0 328.9,426.3 324.4,431.3 319.6,435.8 314.4,439.8 308.9,443.3 303.3,446.3 297.5,448.8 291.5,450.7 285.5,452.1 279.5,452.9 273.5,453.2 267.7,453.0 262.0,452.3 256.5,451.1 251.2,449.4 246.2,447.3 241.5,444.9 237.2,442.1 233.2,439.0 229.6,435.7 226.4,432.1 223.7,428.4 221.3,424.6 219.4,420.7 217.9,416.8 216.8,412.9 216.1,409.0 215.7,405.3 215.7,401.6 216.1,398.2 216.7,394.9 217.6,391.9 218.7,389.1 220.0,386.5 221.4,384.2 223.0,382.2 224.6,380.4 226.4,378.9 228.1,377.6 229.8,376.6 231.4,375.9 233.0,375.3 234.5,375.0 235.9,374.8 237.1,374.7 238.2,374.8 239.1,374.9 239.9,375.1 240.5,375.3 241.0,375.5 241.3,375.7 241.4,375.8 241.5,375.9 241.5,375.8 241.3,375.7 241.1,375.3 240.9,374.9 240.7,374.3 240.5,373.5 240.4,372.6 240.3,371.5 240.4,370.2 240.6,368.9 240.9,367.4 241.5,365.8 242.3,364.2 243.3,362.5 244.5,360.7 246.0,359.0 247.8,357.4 249.8,355.8 252.1,354.3 254.7,353.0 257.5,351.9 260.5,351.1 263.8,350.4 267.3,350.1 270.9,350.1 274.6,350.5 278.5,351.2 282.4,352.3 286.3,353.8 290.2,355.7 294.0,358.0 297.8,360.8 301.3,364.0 304.6,367.6 307.7,371.5 310.5,375.9 313.0,380.6 315.0,385.6 316.7,390.8 317.9,396.4 318.6,402.1 318.8,407.9 318.5,413.9 317.7,419.9 316.3,425.9 314.4,431.8 312.0,437.7 308.9,443.3 305.4,448.8 301.4,453.9 296.9,458.8 291.9,463.3 286.6,467.3 280.9,470.9 274.8,474.0 268.5,476.6 261.9,478.7 255.2,480.1 248.4,481.0 241.5,481.3 234.6,481.0 227.8,480.1 221.1,478.7 214.5,476.6 208.2,474.0 202.1,470.9 196.4,467.3 191.1,463.3 186.1,458.8 181.6,453.9 177.6,448.8 174.1,443.3 171.0,437.7 168.6,431.8 166.7,425.9 165.3,419.9 164.5,413.9 164.2,407.9 164.4,402.1 165.1,396.4 166.3,390.8 168.0,385.6 170.0,380.6 172.5,375.9 175.3,371.5 178.4,367.6 181.7,364.0 185.2,360.8 189.0,358.0 192.8,355.7 196.7,353.8 200.6,352.3 204.5,351.2 208.4,350.5 212.1,350.1 215.7,350.1 219.2,350.4 222.5,351.1 225.5,351.9 228.3,353.0 230.9,354.3 233.2,355.8 235.2,357.4 237.0,359.0 238.5,360.7 239.7,362.5 240.7,364.2 241.5,365.8 242.1,367.4 242.4,368.9 242.6,370.2 242.7,371.5 242.6,372.6 242.5,373.5 242.3,374.3 242.1,374.9 241.9,375.3 241.7,375.7 241.5,375.8 241.5,375.9 241.6,375.8 241.7,375.7 242.0,375.5 242.5,375.3 243.1,375.1 243.9,374.9 244.8,374.8 245.9,374.7 247.1,374.8 248.5,375.0 250.0,375.3 251.6,375.9 253.2,376.6 254.9,377.6 256.6,378.9 258.4,380.4 260.0,382.2 261.6,384.2 263.0,386.5 264.3,389.1 265.4,391.9 266.3,394.9 266.9,398.2 267.3,401.6 267.3,405.3 266.9,409.0 266.2,412.9 265.1,416.8 263.6,420.7 261.7,424.6 259.3,428.4 256.6,432.1 253.4,435.7 249.8,439.0 245.8,442.1 241.5,444.9 236.8,447.3 231.8,449.4 226.5,451.1 221.0,452.3 215.3,453.0 209.5,453.2 203.5,452.9 197.5,452.1 191.5,450.7 185.5,448.8 179.7,446.3 174.1,443.3 168.6,439.8 163.4,435.8 158.6,431.3 154.1,426.3 150.1,421.0 146.5,415.2 143.3,409.2 140.8,402.9 138.7,396.3 137.2,389.6 136.3,382.8 136.0,375.9 136.3,369.0 137.2,362.2 138.7,355.4 140.8,348.9 143.3,342.6 146.5,336.5 150.1,330.8 154.1,325.4 158.6,320.5 163.4,316.0 168.6,312.0 174.1,308.4 179.7,305.4 185.5,303.0 191.5,301.0 197.5,299.7 203.5,298.8 209.5,298.5 215.3,298.8 221.0,299.5 226.5,300.7 231.8,302.3 236.8,304.4 241.5,306.9 245.8,309.6 249.8,312.7 253.4,316.1 256.6,319.6 259.3,323.3 261.7,327.2 263.6,331.1 265.1,335.0 266.2,338.9 266.9,342.7 267.3,346.5 267.3,350.1 266.9,353.6 266.3,356.8 265.4,359.9 264.3,362.7 263.0,365.3 261.6,367.6 260.0,369.6 258.4,371.4 256.6,372.9 254.9,374.1 253.2,375.1 251.6,375.9 250.0,376.4 248.5,376.8 247.1,377.0 245.9,377.1 244.8,377.0 243.9,376.9 243.1,376.7 242.5,376.5 242.0,376.2 241.7,376.1 241.6,375.9 241.5,375.9 241.5,375.9 241.7,376.1 241.9,376.4 242.1,376.9 242.3,377.5 242.5,378.3 242.6,379.2 242.7,380.3 242.6,381.5 242.4,382.9 242.1,384.4 241.5,386.0 240.7,387.6 239.7,389.3 238.5,391.0 237.0,392.7 235.2,394.4 233.2,396.0 230.9,397.4 228.3,398.7 225.5,399.8 222.5,400.7 219.2,401.3 215.7,401.6 212.1,401.6 208.4,401.3 204.5,400.6 200.6,399.5 196.7,398.0 192.8,396.1 189.0,393.7 185.2,391.0 181.7,387.8 178.4,384.2 175.3,380.2 172.5,375.9 170.0,371.2 168.0,366.2 166.3,360.9 165.1,355.4 164.4,349.7 164.2,343.8 164.5,337.9 165.3,331.9 166.7,325.9 168.6,319.9 171.0,314.1 174.1,308.4 177.6,303.0 181.6,297.8 186.1,293.0 191.1,288.5 196.4,284.4 202.1,280.8 208.2,277.7 214.5,275.1 221.1,273.1 227.8,271.6 234.6,270.7 241.5,270.4 248.4,270.7 255.2,271.6 261.9,273.1 268.5,275.1 274.8,277.7 280.9,280.8 286.6,284.4 291.9,288.5 296.9,293.0 301.4,297.8 305.4,303.0 308.9,308.4 312.0,314.1 314.4,319.9 316.3,325.9 317.7,331.9 318.5,337.9 318.8,343.8 318.6,349.7 317.9,355.4 316.7,360.9 315.0,366.2 313.0,371.2 310.5,375.9 307.7,380.2 304.6,384.2 301.3,387.8 297.8,391.0 294.0,393.7 290.2,396.1 286.3,398.0 282.4,399.5 278.5,400.6 274.6,401.3 270.9,401.6 267.3,401.6 263.8,401.3 260.5,400.7 257.5,399.8 254.7,398.7 252.1,397.4 249.8,396.0 247.8,394.4 246.0,392.7 244.5,391.0 243.3,389.3 242.3,387.6 241.5,386.0 240.9,384.4 240.6,382.9 240.4,381.5 240.3,380.3 240.4,379.2 240.5,378.3 240.7,377.5 240.9,376.9 241.1,376.4 241.3,376.1 241.5,375.9 241.5,375.9 241.4,375.9 241.3,376.1 241.0,376.2 240.5,376.5 239.9,376.7 239.1,376.9 238.2,377.0 237.1,377.1 235.9,377.0 234.5,376.8 233.0,376.4 231.4,375.9 229.8,375.1 228.1,374.1 226.4,372.9 224.6,371.4 223.0,369.6 221.4,367.6 220.0,365.3 218.7,362.7 217.6,359.9 216.7,356.8 216.1,353.6 215.7,350.1 215.7,346.5 216.1,342.7 216.8,338.9 217.9,335.0 219.4,331.1 221.3,327.2 223.7,323.3 226.4,319.6 229.6,316.1 233.2,312.7 237.2,309.6 241.5,306.9 246.2,304.4 251.2,302.3 256.5,300.7 262.0,299.5 267.7,298.8 273.5,298.5 279.5,298.8 285.5,299.7 291.5,301.0 297.5,303.0 303.3,305.4 308.9,308.4 314.4,312.0 319.6,316.0 324.4,320.5 328.9,325.4 332.9,330.8 336.5,336.5 339.7,342.6 342.2,348.9 344.3,355.4 345.8,362.2 346.7,369.0 347.0,375.9 346.7,382.8 345.8,389.6 344.3,396.3 342.2,402.9 339.7,409.2 336.5,415.2 332.9,421.0 328.9,426.3 324.4,431.3 319.6,435.8 314.4,439.8 308.9,443.3 303.3,446.3 297.5,448.8 291.5,450.7 285.5,452.1 279.5,452.9 273.5,453.2 267.7,453.0 262.0,452.3 256.5,451.1 251.2,449.4 246.2,447.3 241.5,444.9 237.2,442.1 233.2,439.0 229.6,435.7 226.4,432.1 223.7,428.4 221.3,424.6 219.4,420.7 217.9,416.8 216.8,412.9 216.1,409.0 215.7,405.3 215.7,401.6 216.1,398.2 216.7,394.9 217.6,391.9 218.7,389.1 220.0,386.5 221.4,384.2 223.0,382.2 224.6,380.4 226.4,378.9 228.1,377.6 229.8,376.6 231.4,375.9 233.0,375.3 234.5,375.0 235.9,374.8 237.1,374.7 238.2,374.8 239.1,374.9 239.9,375.1 240.5,375.3 241.0,375.5 241.3,375.7 241.4,375.8 241.5,375.9 241.5,375.8 241.3,375.7 241.1,375.3 240.9,374.9 240.7,374.3 240.5,373.5 240.4,372.6 240.3,371.5 240.4,370.2 240.6,368.9 240.9,367.4 241.5,365.8 242.3,364.2 243.3,362.5 244.5,360.7 246.0,359.0 247.8,357.4 249.8,355.8 252.1,354.3 254.7,353.0 257.5,351.9 260.5,351.1 263.8,350.4 267.3,350.1 270.9,350.1 274.6,350.5 278.5,351.2 282.4,352.3 286.3,353.8 290.2,355.7 294.0,358.0 297.8,360.8 301.3,364.0 304.6,367.6 307.7,371.5 310.5,375.9 313.0,380.6 315.0,385.6 316.7,390.8 317.9,396.4 318.6,402.1 318.8,407.9 318.5,413.9 317.7,419.9 316.3,425.9 314.4,431.8 312.0,437.7 308.9,443.3 305.4,448.8 301.4,453.9 296.9,458.8 291.9,463.3 286.6,467.3 280.9,470.9 274.8,474.0 268.5,476.6 261.9,478.7 255.2,480.1 248.4,481.0" fill="none" stroke="#0878b9" stroke-width="2.2" stroke-linejoin="round" stroke-linecap="round"/><circle cx="246.7" cy="380.9" r="13" fill="#7b8794" stroke="none" stroke-width="1"/><text x="48" y="571.88" font-size="32" font-weight="400" fill="#5b6673" text-anchor="start">重心还窝在中心</text><text x="477" y="207.88" font-size="38" font-weight="700" fill="#c65a3d" text-anchor="start">用 5 Hz 去试</text><rect x="469.0" y="225.9" width="403.0" height="300.0" rx="10" fill="#fff" stroke="#d7dfe6" stroke-width="1" opacity="1"/><line x1="483.0" y1="375.9" x2="858.0" y2="375.9" stroke="#d7dfe6" stroke-width="2" stroke-linecap="round"/><line x1="670.5" y1="239.9" x2="670.5" y2="511.9" stroke="#d7dfe6" stroke-width="2" stroke-linecap="round"/><polyline points="776.0,375.9 775.7,381.4 775.1,386.9 774.0,392.3 772.5,397.6 770.6,402.7 768.3,407.7 765.7,412.4 762.7,416.9 759.3,421.1 755.7,425.1 751.8,428.7 747.7,431.9 743.3,434.8 738.8,437.4 734.1,439.5 729.4,441.3 724.6,442.6 719.7,443.6 714.9,444.2 710.0,444.4 705.3,444.2 700.7,443.6 696.2,442.7 691.8,441.5 687.7,440.0 683.7,438.2 680.0,436.1 676.6,433.8 673.4,431.3 670.5,428.6 667.9,425.8 665.6,422.8 663.5,419.8 661.8,416.7 660.4,413.6 659.2,410.5 658.4,407.5 657.8,404.5 657.4,401.5 657.3,398.7 657.4,396.0 657.7,393.5 658.2,391.1 658.8,388.8 659.6,386.8 660.4,384.9 661.4,383.3 662.4,381.8 663.4,380.5 664.4,379.4 665.4,378.5 666.3,377.7 667.2,377.1 668.0,376.7 668.8,376.3 669.4,376.1 669.9,376.0 670.2,375.9 670.4,375.9 670.5,375.9 670.4,375.9 670.2,375.8 669.9,375.8 669.4,375.6 668.8,375.4 668.0,375.1 667.2,374.6 666.3,374.0 665.4,373.3 664.4,372.3 663.4,371.2 662.4,370.0 661.4,368.5 660.4,366.8 659.6,365.0 658.8,362.9 658.2,360.7 657.7,358.3 657.4,355.7 657.3,353.0 657.4,350.2 657.8,347.3 658.4,344.3 659.2,341.2 660.4,338.1 661.8,335.0 663.5,331.9 665.6,328.9 667.9,326.0 670.5,323.2 673.4,320.5 676.6,318.0 680.0,315.7 683.7,313.6 687.7,311.8 691.8,310.2 696.2,309.0 700.7,308.1 705.3,307.6 710.0,307.4 714.9,307.6 719.7,308.1 724.6,309.1 729.4,310.5 734.1,312.2 738.8,314.4 743.3,316.9 747.7,319.8 751.8,323.1 755.7,326.7 759.3,330.6 762.7,334.8 765.7,339.3 768.3,344.1 770.6,349.1 772.5,354.2 774.0,359.5 775.1,364.9 775.7,370.4 776.0,375.9 775.7,381.4 775.1,386.9 774.0,392.3 772.5,397.6 770.6,402.7 768.3,407.7 765.7,412.4 762.7,416.9 759.3,421.1 755.7,425.1 751.8,428.7 747.7,431.9 743.3,434.8 738.8,437.4 734.1,439.5 729.4,441.3 724.6,442.6 719.7,443.6 714.9,444.2 710.0,444.4 705.3,444.2 700.7,443.6 696.2,442.7 691.8,441.5 687.7,440.0 683.7,438.2 680.0,436.1 676.6,433.8 673.4,431.3 670.5,428.6 667.9,425.8 665.6,422.8 663.5,419.8 661.8,416.7 660.4,413.6 659.2,410.5 658.4,407.5 657.8,404.5 657.4,401.5 657.3,398.7 657.4,396.0 657.7,393.5 658.2,391.1 658.8,388.8 659.6,386.8 660.4,384.9 661.4,383.3 662.4,381.8 663.4,380.5 664.4,379.4 665.4,378.5 666.3,377.7 667.2,377.1 668.0,376.7 668.8,376.3 669.4,376.1 669.9,376.0 670.2,375.9 670.4,375.9 670.5,375.9 670.4,375.9 670.2,375.8 669.9,375.8 669.4,375.6 668.8,375.4 668.0,375.1 667.2,374.6 666.3,374.0 665.4,373.3 664.4,372.3 663.4,371.2 662.4,370.0 661.4,368.5 660.4,366.8 659.6,365.0 658.8,362.9 658.2,360.7 657.7,358.3 657.4,355.7 657.3,353.0 657.4,350.2 657.8,347.3 658.4,344.3 659.2,341.2 660.4,338.1 661.8,335.0 663.5,331.9 665.6,328.9 667.9,326.0 670.5,323.2 673.4,320.5 676.6,318.0 680.0,315.7 683.7,313.6 687.7,311.8 691.8,310.2 696.2,309.0 700.7,308.1 705.3,307.6 710.0,307.4 714.9,307.6 719.7,308.1 724.6,309.1 729.4,310.5 734.1,312.2 738.8,314.4 743.3,316.9 747.7,319.8 751.8,323.1 755.7,326.7 759.3,330.6 762.7,334.8 765.7,339.3 768.3,344.1 770.6,349.1 772.5,354.2 774.0,359.5 775.1,364.9 775.7,370.4 776.0,375.9 775.7,381.4 775.1,386.9 774.0,392.3 772.5,397.6 770.6,402.7 768.3,407.7 765.7,412.4 762.7,416.9 759.3,421.1 755.7,425.1 751.8,428.7 747.7,431.9 743.3,434.8 738.8,437.4 734.1,439.5 729.4,441.3 724.6,442.6 719.7,443.6 714.9,444.2 710.0,444.4 705.3,444.2 700.7,443.6 696.2,442.7 691.8,441.5 687.7,440.0 683.7,438.2 680.0,436.1 676.6,433.8 673.4,431.3 670.5,428.6 667.9,425.8 665.6,422.8 663.5,419.8 661.8,416.7 660.4,413.6 659.2,410.5 658.4,407.5 657.8,404.5 657.4,401.5 657.3,398.7 657.4,396.0 657.7,393.5 658.2,391.1 658.8,388.8 659.6,386.8 660.4,384.9 661.4,383.3 662.4,381.8 663.4,380.5 664.4,379.4 665.4,378.5 666.3,377.7 667.2,377.1 668.0,376.7 668.8,376.3 669.4,376.1 669.9,376.0 670.2,375.9 670.4,375.9 670.5,375.9 670.4,375.9 670.2,375.8 669.9,375.8 669.4,375.6 668.8,375.4 668.0,375.1 667.2,374.6 666.3,374.0 665.4,373.3 664.4,372.3 663.4,371.2 662.4,370.0 661.4,368.5 660.4,366.8 659.6,365.0 658.8,362.9 658.2,360.7 657.7,358.3 657.4,355.7 657.3,353.0 657.4,350.2 657.8,347.3 658.4,344.3 659.2,341.2 660.4,338.1 661.8,335.0 663.5,331.9 665.6,328.9 667.9,326.0 670.5,323.2 673.4,320.5 676.6,318.0 680.0,315.7 683.7,313.6 687.7,311.8 691.8,310.2 696.2,309.0 700.7,308.1 705.3,307.6 710.0,307.4 714.9,307.6 719.7,308.1 724.6,309.1 729.4,310.5 734.1,312.2 738.8,314.4 743.3,316.9 747.7,319.8 751.8,323.1 755.7,326.7 759.3,330.6 762.7,334.8 765.7,339.3 768.3,344.1 770.6,349.1 772.5,354.2 774.0,359.5 775.1,364.9 775.7,370.4 776.0,375.9 775.7,381.4 775.1,386.9 774.0,392.3 772.5,397.6 770.6,402.7 768.3,407.7 765.7,412.4 762.7,416.9 759.3,421.1 755.7,425.1 751.8,428.7 747.7,431.9 743.3,434.8 738.8,437.4 734.1,439.5 729.4,441.3 724.6,442.6 719.7,443.6 714.9,444.2 710.0,444.4 705.3,444.2 700.7,443.6 696.2,442.7 691.8,441.5 687.7,440.0 683.7,438.2 680.0,436.1 676.6,433.8 673.4,431.3 670.5,428.6 667.9,425.8 665.6,422.8 663.5,419.8 661.8,416.7 660.4,413.6 659.2,410.5 658.4,407.5 657.8,404.5 657.4,401.5 657.3,398.7 657.4,396.0 657.7,393.5 658.2,391.1 658.8,388.8 659.6,386.8 660.4,384.9 661.4,383.3 662.4,381.8 663.4,380.5 664.4,379.4 665.4,378.5 666.3,377.7 667.2,377.1 668.0,376.7 668.8,376.3 669.4,376.1 669.9,376.0 670.2,375.9 670.4,375.9 670.5,375.9 670.4,375.9 670.2,375.8 669.9,375.8 669.4,375.6 668.8,375.4 668.0,375.1 667.2,374.6 666.3,374.0 665.4,373.3 664.4,372.3 663.4,371.2 662.4,370.0 661.4,368.5 660.4,366.8 659.6,365.0 658.8,362.9 658.2,360.7 657.7,358.3 657.4,355.7 657.3,353.0 657.4,350.2 657.8,347.3 658.4,344.3 659.2,341.2 660.4,338.1 661.8,335.0 663.5,331.9 665.6,328.9 667.9,326.0 670.5,323.2 673.4,320.5 676.6,318.0 680.0,315.7 683.7,313.6 687.7,311.8 691.8,310.2 696.2,309.0 700.7,308.1 705.3,307.6 710.0,307.4 714.9,307.6 719.7,308.1 724.6,309.1 729.4,310.5 734.1,312.2 738.8,314.4 743.3,316.9 747.7,319.8 751.8,323.1 755.7,326.7 759.3,330.6 762.7,334.8 765.7,339.3 768.3,344.1 770.6,349.1 772.5,354.2 774.0,359.5 775.1,364.9 775.7,370.4 776.0,375.9 775.7,381.4 775.1,386.9 774.0,392.3 772.5,397.6 770.6,402.7 768.3,407.7 765.7,412.4 762.7,416.9 759.3,421.1 755.7,425.1 751.8,428.7 747.7,431.9 743.3,434.8 738.8,437.4 734.1,439.5 729.4,441.3 724.6,442.6 719.7,443.6 714.9,444.2 710.0,444.4 705.3,444.2 700.7,443.6 696.2,442.7 691.8,441.5 687.7,440.0 683.7,438.2 680.0,436.1 676.6,433.8 673.4,431.3 670.5,428.6 667.9,425.8 665.6,422.8 663.5,419.8 661.8,416.7 660.4,413.6 659.2,410.5 658.4,407.5 657.8,404.5 657.4,401.5 657.3,398.7 657.4,396.0 657.7,393.5 658.2,391.1 658.8,388.8 659.6,386.8 660.4,384.9 661.4,383.3 662.4,381.8 663.4,380.5 664.4,379.4 665.4,378.5 666.3,377.7 667.2,377.1 668.0,376.7 668.8,376.3 669.4,376.1 669.9,376.0 670.2,375.9 670.4,375.9 670.5,375.9 670.4,375.9 670.2,375.8 669.9,375.8 669.4,375.6 668.8,375.4 668.0,375.1 667.2,374.6 666.3,374.0 665.4,373.3 664.4,372.3 663.4,371.2 662.4,370.0 661.4,368.5 660.4,366.8 659.6,365.0 658.8,362.9 658.2,360.7 657.7,358.3 657.4,355.7 657.3,353.0 657.4,350.2 657.8,347.3 658.4,344.3 659.2,341.2 660.4,338.1 661.8,335.0 663.5,331.9 665.6,328.9 667.9,326.0 670.5,323.2 673.4,320.5 676.6,318.0 680.0,315.7 683.7,313.6 687.7,311.8 691.8,310.2 696.2,309.0 700.7,308.1 705.3,307.6 710.0,307.4 714.9,307.6 719.7,308.1 724.6,309.1 729.4,310.5 734.1,312.2 738.8,314.4 743.3,316.9 747.7,319.8 751.8,323.1 755.7,326.7 759.3,330.6 762.7,334.8 765.7,339.3 768.3,344.1 770.6,349.1 772.5,354.2 774.0,359.5 775.1,364.9 775.7,370.4" fill="none" stroke="#0878b9" stroke-width="2.2" stroke-linejoin="round" stroke-linecap="round"/><circle cx="696.9" cy="375.9" r="13" fill="#c65a3d" stroke="none" stroke-width="1"/><text x="477" y="571.88" font-size="32" font-weight="400" fill="#5b6673" text-anchor="start">重心明显甩出去了</text><text x="40" y="649.88" font-size="34" font-weight="700" fill="#c65a3d" text-anchor="start">那个点离中心多远，就是这个频率有多强。</text>
</svg>
