<svg xmlns="http://www.w3.org/2000/svg" viewBox="0 0 880 396" width="880" height="396" font-family="Microsoft YaHei, PingFang SC, Noto Sans SC, Hiragino Sans GB, sans-serif" fill="#1f2933" role="img" aria-label="不同分界频率下三段录音的中位带能量比">
<rect width="880" height="396" fill="#fff"/>
<text x="30.0" y="36.0" font-size="22" font-weight="700" fill="#1f2933" text-anchor="start">分界频率一改，BER 就跟着改：它是任务参数，不是固定答案</text><rect x="78.0" y="82.0" width="762.0" height="240.0" rx="6" fill="#f5f8fa" stroke="#d7dfe6" stroke-width="1"/><text x="72.0" y="326.0" font-size="14" font-weight="400" fill="#5b6673" text-anchor="end">0</text><text x="72.0" y="262.8" font-size="14" font-weight="400" fill="#5b6673" text-anchor="end">10</text><text x="72.0" y="199.7" font-size="14" font-weight="400" fill="#5b6673" text-anchor="end">20</text><text x="72.0" y="136.5" font-size="14" font-weight="400" fill="#5b6673" text-anchor="end">30 dB</text><polyline points="78.0,310.3 332.0,268.2 586.0,197.9 840.0,98.0" fill="none" stroke="#0878b9" stroke-width="2.2" stroke-linejoin="round"/><circle cx="78.0" cy="310.3" r="3.5" fill="#0878b9" stroke="none" stroke-width="1"/><circle cx="332.0" cy="268.2" r="3.5" fill="#0878b9" stroke="none" stroke-width="1"/><circle cx="586.0" cy="197.9" r="3.5" fill="#0878b9" stroke="none" stroke-width="1"/><circle cx="840.0" cy="98.0" r="3.5" fill="#0878b9" stroke="none" stroke-width="1"/><polyline points="78.0,298.8 332.0,291.8 586.0,276.2 840.0,211.8" fill="none" stroke="#c65a3d" stroke-width="2.2" stroke-linejoin="round"/><circle cx="78.0" cy="298.8" r="3.5" fill="#c65a3d" stroke="none" stroke-width="1"/><circle cx="332.0" cy="291.8" r="3.5" fill="#c65a3d" stroke="none" stroke-width="1"/><circle cx="586.0" cy="276.2" r="3.5" fill="#c65a3d" stroke="none" stroke-width="1"/><circle cx="840.0" cy="211.8" r="3.5" fill="#c65a3d" stroke="none" stroke-width="1"/><polyline points="78.0,276.5 332.0,264.9 586.0,233.8 840.0,115.2" fill="none" stroke="#3b8f68" stroke-width="2.2" stroke-linejoin="round"/><circle cx="78.0" cy="276.5" r="3.5" fill="#3b8f68" stroke="none" stroke-width="1"/><circle cx="332.0" cy="264.9" r="3.5" fill="#3b8f68" stroke="none" stroke-width="1"/><circle cx="586.0" cy="233.8" r="3.5" fill="#3b8f68" stroke="none" stroke-width="1"/><circle cx="840.0" cy="115.2" r="3.5" fill="#3b8f68" stroke="none" stroke-width="1"/><text x="78.0" y="342.0" font-size="14" font-weight="400" fill="#5b6673" text-anchor="middle">500</text><text x="332.0" y="342.0" font-size="14" font-weight="400" fill="#5b6673" text-anchor="middle">1000</text><text x="586.0" y="342.0" font-size="14" font-weight="400" fill="#5b6673" text-anchor="middle">2000</text><text x="840.0" y="342.0" font-size="14" font-weight="400" fill="#5b6673" text-anchor="end">4000 Hz</text><rect x="150.0" y="360.0" width="14.0" height="10.0" rx="2" fill="#0878b9" stroke="none" stroke-width="1"/><text x="170.0" y="368.0" font-size="14" font-weight="400" fill="#5b6673" text-anchor="start">德彪西</text><rect x="320.0" y="360.0" width="14.0" height="10.0" rx="2" fill="#c65a3d" stroke="none" stroke-width="1"/><text x="340.0" y="368.0" font-size="14" font-weight="400" fill="#5b6673" text-anchor="start">摇滚</text><rect x="490.0" y="360.0" width="14.0" height="10.0" rx="2" fill="#3b8f68" stroke="none" stroke-width="1"/><text x="510.0" y="368.0" font-size="14" font-weight="400" fill="#5b6673" text-anchor="start">艾灵顿公爵</text>
</svg>
