<svg xmlns="http://www.w3.org/2000/svg" viewBox="0 0 880 466" width="880" height="466" font-family="Microsoft YaHei, PingFang SC, Noto Sans SC, Hiragino Sans GB, sans-serif" fill="#1f2933" role="img" aria-label="同一段录音的波形与三条时域特征曲线">
<rect width="880" height="466" fill="#fff"/>
<text x="30.0" y="36.0" font-size="22" font-weight="700" fill="#1f2933" text-anchor="start">同一段真实录音，三条曲线各画各的</text><rect x="30.0" y="76.0" width="820.0" height="62.0" rx="6" fill="#fff" stroke="#d7dfe6" stroke-width="1"/><text x="30.0" y="68.0" font-size="14" font-weight="700" fill="#5b6673" text-anchor="start">波形（原始的 66150 个数）</text><line x1="30.0" y1="107.0" x2="850.0" y2="107.0" stroke="#d7dfe6" stroke-width="1.4" stroke-dasharray="3 3" stroke-linecap="round"/><polyline points="30.0,108.9 30.2,105.6 30.4,100.8 30.6,112.9 30.8,104.7 31.0,112.7 31.2,113.2 31.4,111.6 31.6,104.8 31.8,112.1 32.0,100.5 32.2,99.7 32.4,109.3 32.6,96.6 32.8,110.5 33.0,101.6 33.2,101.5 33.4,104.5 33.6,104.7 33.8,105.6 34.0,110.6 34.2,102.3 34.4,102.8 34.6,115.6 34.8,104.0 35.0,109.9 35.2,115.3 35.4,108.4 35.6,111.9 35.8,98.5 36.0,95.3 36.1,114.4 36.3,101.1 36.5,99.7 36.7,111.5 36.9,99.7 37.1,101.3 37.3,100.5 37.5,104.8 37.7,102.8 37.9,106.6 38.1,98.6 38.3,113.8 38.5,108.0 38.7,102.4 38.9,122.9 39.1,106.5 39.3,111.7 39.5,110.4 39.7,94.9 39.9,101.0 40.1,107.0 40.3,102.6 40.5,100.2 40.7,103.4 40.9,99.9 41.1,107.4 41.3,100.2 41.5,103.3 41.7,117.1 41.9,103.3 42.1,101.5 42.3,111.8 42.5,104.9 42.7,105.6 42.9,116.1 43.1,110.0 43.3,111.7 43.5,105.4 43.7,94.2 43.9,106.8 44.1,111.0 44.3,98.7 44.5,108.9 44.7,100.6 44.9,98.1 45.1,108.1 45.3,96.2 45.5,108.3 45.7,113.2 45.9,101.5 46.1,105.5 46.3,107.6 46.5,104.2 46.7,116.9 46.9,116.4 47.1,101.5 47.3,119.3 47.5,98.5 47.7,95.1 47.9,104.1 48.1,102.5 48.2,105.7 48.4,106.8 48.6,96.5 48.8,107.5 49.0,99.5 49.2,98.0 49.4,118.3 49.6,105.6 49.8,100.2 50.0,110.7 50.2,102.0 50.4,103.4 50.6,118.0 50.8,107.2 51.0,115.2 51.2,117.0 51.4,95.1 51.6,111.1 51.8,93.2 52.0,104.7 52.2,110.0 52.4,96.6 52.6,97.8 52.8,105.1 53.0,97.5 53.2,107.2 53.4,118.3 53.6,97.0 53.8,111.1 54.0,106.4 54.2,104.2 54.4,117.9 54.6,104.7 54.8,111.8 55.0,122.7 55.2,99.7 55.4,98.1 55.6,110.1 55.8,97.6 56.0,110.9 56.2,109.0 56.4,91.8 56.6,109.4 56.8,102.3 57.0,94.5 57.2,114.7 57.4,100.4 57.6,101.2 57.8,121.1 58.0,96.0 58.2,109.7 58.4,110.6 58.6,105.4 58.8,117.5 59.0,116.0 59.2,95.1 59.4,108.4 59.6,101.2 59.8,91.6 60.0,119.9 60.1,96.6 60.3,98.1 60.5,112.1 60.7,84.7 60.9,102.6 61.1,116.3 61.3,102.0 61.5,110.9 61.7,111.2 61.9,95.3 62.1,113.8 62.3,106.3 62.5,111.1 62.7,124.7 62.9,101.0 63.1,97.3 63.3,111.8 63.5,95.2 63.7,103.6 63.9,111.5 64.1,96.4 64.3,106.8 64.5,104.8 64.7,94.4 64.9,108.8 65.1,103.6 65.3,101.2 65.5,122.3 65.7,104.8 65.9,101.3 66.1,119.8 66.3,98.1 66.5,114.2 66.7,117.9 66.9,104.1 67.1,104.6 67.3,103.5 67.5,97.9 67.7,102.8 67.9,107.1 68.1,103.0 68.3,113.0 68.5,90.0 68.7,90.1 68.9,115.0 69.1,107.7 69.3,104.9 69.5,110.9 69.7,99.4 69.9,107.6 70.1,111.7 70.3,104.6 70.5,124.6 70.7,101.9 70.9,100.0 71.1,114.6 71.3,98.8 71.5,100.0 71.7,112.1 71.9,105.3 72.1,102.1 72.2,102.4 72.4,92.7 72.6,109.8 72.8,99.6 73.0,103.0 73.2,116.6 73.4,102.3 73.6,104.0 73.8,117.8 74.0,106.0 74.2,106.2 74.4,120.0 74.6,108.3 74.8,112.5 75.0,96.7 75.2,93.2 75.4,118.6 75.6,101.1 75.8,102.5 76.0,114.2 76.2,88.1 76.4,94.3 76.6,107.6 76.8,99.8 77.0,109.2 77.2,110.8 77.4,104.2 77.6,114.0 77.8,106.3 78.0,112.0 78.2,123.4 78.4,108.5 78.6,97.0 78.8,116.5 79.0,86.6 79.2,102.4 79.4,110.8 79.6,97.6 79.8,103.7 80.0,107.9 80.2,96.3 80.4,109.8 80.6,99.6 80.8,96.9 81.0,124.3 81.2,103.6 81.4,97.0 81.6,116.2 81.8,96.5 82.0,113.0 82.2,116.8 82.4,109.6 82.6,107.4 82.8,104.1 83.0,95.5 83.2,117.2 83.4,106.2 83.6,95.6 83.8,116.3 84.0,94.6 84.2,92.2 84.3,110.3 84.5,93.7 84.7,103.9 84.9,122.6 85.1,101.3 85.3,111.1 85.5,104.4 85.7,107.4 85.9,127.5 86.1,106.1 86.3,100.3 86.5,112.5 86.7,98.4 86.9,96.7 87.1,112.5 87.3,101.7 87.5,103.7 87.7,113.7 87.9,98.3 88.1,109.8 88.3,93.4 88.5,101.0 88.7,112.0 88.9,105.5 89.1,96.4 89.3,118.2 89.5,98.6 89.7,99.4 89.9,128.5 90.1,110.7 90.3,109.1 90.5,109.0 90.7,100.8 90.9,113.5 91.1,101.5 91.3,100.8 91.5,111.9 91.7,97.6 91.9,86.0 92.1,109.3 92.3,99.6 92.5,98.6 92.7,107.8 92.9,112.3 93.1,110.1 93.3,115.2 93.5,98.9 93.7,119.7 93.9,114.0 94.1,99.5 94.3,115.5 94.5,96.9 94.7,94.8 94.9,112.4 95.1,102.1 95.3,99.5 95.5,114.9 95.7,96.6 95.9,104.7 96.1,106.4 96.3,91.9 96.4,111.7 96.6,105.8 96.8,101.0 97.0,115.0 97.2,97.6 97.4,106.0 97.6,121.8 97.8,102.9 98.0,104.5 98.2,116.4 98.4,100.7 98.6,108.9 98.8,107.6 99.0,95.7 99.2,116.3 99.4,99.5 99.6,91.9 99.8,115.0 100.0,88.3 100.2,93.4 100.4,115.2 100.6,107.0 100.8,108.0 101.0,112.6 101.2,96.3 101.4,112.1 101.6,110.2 101.8,113.1 102.0,123.2 102.2,98.1 102.4,93.1 102.6,123.7 102.8,100.6 103.0,98.5 103.2,111.0 103.4,100.6 103.6,97.9 103.8,99.9 104.0,93.1 104.2,104.2 104.4,100.6 104.6,99.1 104.8,130.6 105.0,106.4 105.2,96.7 105.4,127.6 105.6,110.7 105.8,108.4 106.0,118.7 106.2,97.3 106.4,102.7 106.6,101.3 106.8,91.6 107.0,113.5 107.2,98.3 107.4,93.6 107.6,112.9 107.8,95.7 108.0,92.6 108.2,118.9 108.4,105.2 108.5,112.6 108.7,121.6 108.9,96.5 109.1,108.7 109.3,106.2 109.5,99.6 109.7,125.6 109.9,103.1 110.1,92.6 110.3,120.5 110.5,93.0 110.7,97.3 110.9,121.6 111.1,99.2 111.3,98.9 111.5,106.6 111.7,93.7 111.9,104.6 112.1,101.6 112.3,105.3 112.5,127.1 112.7,103.9 112.9,100.1 113.1,121.7 113.3,105.3 113.5,100.3 113.7,113.7 113.9,108.4 114.1,103.9 114.3,110.1 114.5,94.3 114.7,112.4 114.9,105.1 115.1,95.9 115.3,116.7 115.5,94.7 115.7,85.3 115.9,110.8 116.1,102.2 116.3,106.1 116.5,121.4 116.7,111.1 116.9,107.1 117.1,115.1 117.3,107.0 117.5,114.8 117.7,108.4 117.9,95.5 118.1,111.3 118.3,104.8 118.5,89.5 118.7,105.9 118.9,101.0 119.1,97.2 119.3,108.3 119.5,99.1 119.7,97.7 119.9,110.6 120.1,96.8 120.3,122.0 120.4,121.9 120.6,103.9 120.8,115.6 121.0,102.9 121.2,96.6 121.4,112.9 121.6,102.3 121.8,98.8 122.0,109.5 122.2,101.2 122.4,107.2 122.6,105.5 122.8,106.6 123.0,110.7 123.2,96.6 123.4,98.1 123.6,103.1 123.8,99.9 124.0,100.3 124.2,115.7 124.4,112.6 124.6,111.2 124.8,108.0 125.0,111.4 125.2,118.2 125.4,103.1 125.6,106.9 125.8,110.8 126.0,99.8 126.2,102.0 126.4,103.6 126.6,101.3 126.8,105.4 127.0,99.3 127.2,103.1 127.4,97.8 127.6,91.7 127.8,113.6 128.0,113.1 128.2,113.6 128.4,116.1 128.6,107.2 128.8,107.4 129.0,109.4 129.2,110.2 129.4,105.5 129.6,95.6 129.8,98.0 130.0,106.8 130.2,109.5 130.4,103.1 130.6,110.9 130.8,112.1 131.0,101.0 131.2,98.2 131.4,101.7 131.6,97.4 131.8,102.4 132.0,106.8 132.2,109.4 132.4,109.2 132.5,103.8 132.7,116.1 132.9,113.8 133.1,112.9 133.3,108.7 133.5,100.6 133.7,100.3 133.9,104.1 134.1,102.4 134.3,99.6 134.5,100.5 134.7,105.3 134.9,98.0 135.1,102.3 135.3,101.2 135.5,105.9 135.7,113.5 135.9,106.0 136.1,118.5 136.3,112.3 136.5,100.3 136.7,108.1 136.9,111.3 137.1,100.1 137.3,104.5 137.5,92.3 137.7,103.5 137.9,106.8 138.1,106.2 138.3,120.5 138.5,108.0 138.7,99.4 138.9,103.0 139.1,102.2 139.3,96.5 139.5,104.8 139.7,100.9 139.9,105.6 140.1,116.4 140.3,104.4 140.5,113.2 140.7,118.9 140.9,103.0 141.1,110.3 141.3,110.4 141.5,91.9 141.7,110.4 141.9,102.7 142.1,98.4 142.3,106.6 142.5,98.9 142.7,106.0 142.9,107.1 143.1,94.2 143.3,106.3 143.5,107.4 143.7,106.6 143.9,123.4 144.1,111.1 144.3,104.5 144.5,113.9 144.6,108.6 144.8,102.5 145.0,105.4 145.2,88.7 145.4,103.7 145.6,108.3 145.8,100.4 146.0,105.4 146.2,112.1 146.4,104.8 146.6,115.0 146.8,101.3 147.0,99.2 147.2,108.8 147.4,93.6 147.6,112.8 147.8,113.4 148.0,101.7 148.2,106.2 148.4,102.8 148.6,108.1 148.8,111.6 149.0,102.7 149.2,103.9 149.4,112.1 149.6,100.3 149.8,110.6 150.0,108.7 150.2,104.6 150.4,102.0 150.6,105.7 150.8,93.0 151.0,96.9 151.2,101.2 151.4,99.3 151.6,111.5 151.8,113.1 152.0,111.1 152.2,118.3 152.4,101.2 152.6,112.9 152.8,116.5 153.0,101.6 153.2,108.6 153.4,101.2 153.6,97.6 153.8,103.4 154.0,101.1 154.2,105.6 154.4,108.9 154.6,93.5 154.8,94.0 155.0,109.3 155.2,103.0 155.4,109.6 155.6,115.6 155.8,109.3 156.0,111.9 156.2,113.8 156.4,103.7 156.6,111.4 156.7,103.7 156.9,97.4 157.1,113.1 157.3,99.2 157.5,100.5 157.7,105.6 157.9,98.2 158.1,113.5 158.3,105.5 158.5,93.2 158.7,108.1 158.9,99.4 159.1,103.6 159.3,114.5 159.5,110.3 159.7,110.0 159.9,111.4 160.1,103.8 160.3,109.8 160.5,110.0 160.7,98.1 160.9,104.0 161.1,102.2 161.3,95.1 161.5,110.1 161.7,109.0 161.9,100.8 162.1,114.4 162.3,102.3 162.5,107.7 162.7,110.8 162.9,98.5 163.1,105.9 163.3,106.1 163.5,104.6 163.7,110.9 163.9,104.6 164.1,96.1 164.3,113.0 164.5,102.5 164.7,103.3 164.9,107.8 165.1,107.3 165.3,106.2 165.5,115.2 165.7,108.2 165.9,104.8 166.1,106.9 166.3,93.3 166.5,110.3 166.7,102.9 166.9,92.1 167.1,107.8 167.3,106.7 167.5,102.2 167.7,114.2 167.9,103.5 168.1,109.5 168.3,112.8 168.5,98.4 168.7,113.0 168.8,105.6 169.0,103.3 169.2,115.8 169.4,98.7 169.6,104.4 169.8,109.9 170.0,94.0 170.2,97.2 170.4,108.8 170.6,102.3 170.8,106.6 171.0,106.9 171.2,100.0 171.4,118.3 171.6,110.7 171.8,109.8 172.0,118.9 172.2,92.9 172.4,100.6 172.6,110.6 172.8,97.7 173.0,108.0 173.2,104.1 173.4,94.6 173.6,118.0 173.8,107.3 174.0,104.6 174.2,112.9 174.4,97.7 174.6,110.6 174.8,110.2 175.0,94.8 175.2,105.4 175.4,106.4 175.6,97.1 175.8,106.6 176.0,115.8 176.2,99.9 176.4,105.1 176.6,108.4 176.8,108.1 177.0,114.2 177.2,100.5 177.4,107.1 177.6,115.5 177.8,89.3 178.0,106.8 178.2,112.1 178.4,93.3 178.6,98.4 178.8,104.3 179.0,104.0 179.2,110.5 179.4,101.5 179.6,107.0 179.8,115.0 180.0,102.3 180.2,110.6 180.4,116.5 180.6,98.7 180.7,97.3 180.9,111.2 181.1,99.8 181.3,107.5 181.5,108.6 181.7,101.7 181.9,111.4 182.1,105.2 182.3,106.1 182.5,113.6 182.7,93.3 182.9,100.2 183.1,114.3 183.3,99.1 183.5,103.6 183.7,109.5 183.9,101.5 184.1,107.5 184.3,107.4 184.5,104.5 184.7,110.9 184.9,105.4 185.1,104.6 185.3,116.1 185.5,105.8 185.7,102.4 185.9,112.6 186.1,96.6 186.3,92.9 186.5,112.4 186.7,95.3 186.9,106.7 187.1,107.9 187.3,100.4 187.5,122.5 187.7,104.9 187.9,103.8 188.1,114.0 188.3,94.1 188.5,103.8 188.7,111.7 188.9,95.3 189.1,105.2 189.3,106.7 189.5,101.0 189.7,115.6 189.9,107.6 190.1,100.7 190.3,108.3 190.5,100.5 190.7,105.0 190.9,112.0 191.1,97.6 191.3,102.6 191.5,112.0 191.7,101.3 191.9,105.5 192.1,110.3 192.3,99.9 192.5,110.2 192.7,100.6 192.8,107.0 193.0,117.0 193.2,96.7 193.4,105.5 193.6,114.0 193.8,101.8 194.0,102.6 194.2,107.7 194.4,100.8 194.6,102.1 194.8,109.8 195.0,109.3 195.2,110.5 195.4,101.2 195.6,100.3 195.8,111.4 196.0,102.4 196.2,97.2 196.4,111.0 196.6,98.4 196.8,104.9 197.0,115.8 197.2,103.3 197.4,112.8 197.6,104.8 197.8,102.8 198.0,122.1 198.2,100.7 198.4,97.2 198.6,103.5 198.8,94.7 199.0,107.6 199.2,110.1 199.4,98.1 199.6,103.3 199.8,105.1 200.0,107.7 200.2,115.3 200.4,107.7 200.6,104.3 200.8,112.2 201.0,102.5 201.2,103.5 201.4,112.3 201.6,96.2 201.8,102.9 202.0,105.3 202.2,93.0 202.4,112.4 202.6,104.8 202.8,105.8 203.0,119.0 203.2,104.8 203.4,111.2 203.6,113.5 203.8,90.1 204.0,103.4 204.2,106.1 204.4,93.1 204.6,106.5 204.8,102.5 204.9,105.3 205.1,115.0 205.3,109.5 205.5,114.5 205.7,117.8 205.9,95.1 206.1,105.2 206.3,108.4 206.5,96.0 206.7,102.7 206.9,103.7 207.1,97.2 207.3,108.5 207.5,103.9 207.7,102.8 207.9,117.0 208.1,96.9 208.3,111.9 208.5,119.3 208.7,100.7 208.9,108.6 209.1,107.9 209.3,95.5 209.5,105.8 209.7,96.7 209.9,98.0 210.1,109.4 210.3,98.8 210.5,106.6 210.7,121.0 210.9,109.7 211.1,106.2 211.3,110.1 211.5,98.8 211.7,108.3 211.9,107.0 212.1,97.2 212.3,109.5 212.5,99.7 212.7,98.2 212.9,117.8 213.1,102.0 213.3,97.1 213.5,109.7 213.7,102.3 213.9,116.1 214.1,113.0 214.3,99.4 214.5,113.8 214.7,109.4 214.9,98.8 215.1,113.1 215.3,97.7 215.5,94.7 215.7,106.6 215.9,99.1 216.1,106.1 216.3,107.9 216.5,99.6 216.7,111.1 216.9,117.7 217.0,100.9 217.2,114.5 217.4,107.2 217.6,99.3 217.8,115.1 218.0,98.1 218.2,98.1 218.4,112.8 218.6,95.8 218.8,99.9 219.0,108.4 219.2,97.6 219.4,111.5 219.6,105.5 219.8,105.6 220.0,119.7 220.2,108.4 220.4,103.1 220.6,116.6 220.8,99.3 221.0,93.5 221.2,108.9 221.4,99.4 221.6,104.4 221.8,105.7 222.0,98.3 222.2,111.5 222.4,111.0 222.6,95.7 222.8,122.5 223.0,106.2 223.2,100.7 223.4,119.9 223.6,100.4 223.8,101.9 224.0,109.0 224.2,98.0 224.4,104.1 224.6,103.7 224.8,99.0 225.0,115.2 225.2,105.8 225.4,100.1 225.6,109.4 225.8,103.4 226.0,102.1 226.2,112.8 226.4,103.1 226.6,109.9 226.8,115.9 227.0,104.0 227.2,105.9 227.4,111.7 227.6,94.5 227.8,108.3 228.0,107.5 228.2,92.4 228.4,110.0 228.6,98.8 228.8,101.9 229.0,118.0 229.1,96.9 229.3,104.6 229.5,112.8 229.7,101.8 229.9,109.7 230.1,113.8 230.3,104.0 230.5,114.2 230.7,106.8 230.9,100.7 231.1,107.4 231.3,93.2 231.5,95.9 231.7,116.5 231.9,97.3 232.1,96.9 232.3,119.0 232.5,106.1 232.7,113.6 232.9,113.2 233.1,94.8 233.3,111.3 233.5,101.7 233.7,95.0 233.9,117.5 234.1,94.0 234.3,100.5 234.5,121.1 234.7,107.0 234.9,101.7 235.1,114.8 235.3,99.2 235.5,105.5 235.7,110.5 235.9,98.8 236.1,114.0 236.3,101.9 236.5,94.0 236.7,113.3 236.9,101.0 237.1,93.5 237.3,116.3 237.5,97.3 237.7,110.3 237.9,120.5 238.1,104.4 238.3,119.0 238.5,107.8 238.7,94.9 238.9,110.4 239.1,100.6 239.3,93.1 239.5,105.0 239.7,94.3 239.9,103.7 240.1,123.7 240.3,104.8 240.5,99.6 240.7,112.9 240.9,106.4 241.0,112.2 241.2,107.3 241.4,93.1 241.6,112.1 241.8,108.5 242.0,96.7 242.2,116.8 242.4,103.8 242.6,93.0 242.8,112.5 243.0,99.9 243.2,111.8 243.4,110.9 243.6,95.6 243.8,116.3 244.0,107.7 244.2,94.3 244.4,110.8 244.6,101.0 244.8,93.8 245.0,115.3 245.2,108.5 245.4,107.6 245.6,117.7 245.8,101.1 246.0,109.0 246.2,112.7 246.4,92.3 246.6,113.9 246.8,97.8 247.0,85.1 247.2,112.9 247.4,104.1 247.6,108.7 247.8,108.4 248.0,95.2 248.2,113.1 248.4,114.4 248.6,97.2 248.8,115.9 249.0,105.6 249.2,104.8 249.4,120.2 249.6,100.5 249.8,100.3 250.0,108.2 250.2,96.2 250.4,103.2 250.6,109.0 250.8,97.7 251.0,106.5 251.2,103.2 251.4,100.9 251.6,117.8 251.8,105.0 252.0,98.0 252.2,111.9 252.4,103.9 252.6,114.5 252.8,118.5 253.0,100.4 253.1,108.8 253.3,104.5 253.5,96.2 253.7,109.0 253.9,99.4 254.1,96.3 254.3,115.2 254.5,95.1 254.7,108.6 254.9,115.4 255.1,102.9 255.3,105.5 255.5,107.9 255.7,107.9 255.9,104.5 256.1,105.4 256.3,95.2 256.5,116.3 256.7,112.0 256.9,100.5 257.1,113.4 257.3,96.5 257.5,101.1 257.7,115.2 257.9,103.1 258.1,104.1 258.3,102.7 258.5,95.0 258.7,114.7 258.9,103.3 259.1,96.6 259.3,117.6 259.5,93.7 259.7,104.6 259.9,122.8 260.1,105.9 260.3,112.0 260.5,106.4 260.7,103.8 260.9,116.0 261.1,100.0 261.3,89.8 261.5,111.7 261.7,102.5 261.9,94.9 262.1,114.6 262.3,97.1 262.5,108.7 262.7,114.7 262.9,97.6 263.1,116.1 263.3,106.5 263.5,95.6 263.7,118.6 263.9,108.2 264.1,102.2 264.3,124.3 264.5,92.9 264.7,103.2 264.9,109.6 265.1,94.9 265.2,108.8 265.4,108.9 265.6,93.9 265.8,110.4 266.0,107.7 266.2,97.4 266.4,117.4 266.6,97.7 266.8,100.0 267.0,113.1 267.2,99.4 267.4,109.9 267.6,122.7 267.8,97.3 268.0,116.4 268.2,115.6 268.4,96.1 268.6,108.4 268.8,96.0 269.0,98.7 269.2,112.5 269.4,84.4 269.6,97.3 269.8,115.2 270.0,96.8 270.2,110.9 270.4,113.9 270.6,109.3 270.8,107.9 271.0,114.4 271.2,109.7 271.4,113.9 271.6,106.8 271.8,98.0 272.0,111.7 272.2,92.8 272.4,91.4 272.6,109.8 272.8,98.2 273.0,96.8 273.2,114.0 273.4,100.5 273.6,119.3 273.8,113.0 274.0,99.6 274.2,119.3 274.4,100.6 274.6,95.6 274.8,115.9 275.0,100.6 275.2,92.7 275.4,113.2 275.6,104.5 275.8,115.0 276.0,106.2 276.2,94.8 276.4,117.2 276.6,115.6 276.8,93.1 277.0,104.7 277.2,100.5 277.3,96.3 277.5,110.5 277.7,98.9 277.9,105.9 278.1,107.6 278.3,97.5 278.5,117.5 278.7,118.0 278.9,97.7 279.1,119.0 279.3,111.1 279.5,104.0 279.7,103.3 279.9,99.6 280.1,100.0 280.3,100.9 280.5,99.6 280.7,101.2 280.9,114.7 281.1,98.7 281.3,104.8 281.5,118.5 281.7,107.9 281.9,102.5 282.1,110.3 282.3,102.6 282.5,107.6 282.7,104.0 282.9,100.8 283.1,125.9 283.3,104.0 283.5,99.6 283.7,114.8 283.9,100.6 284.1,104.7 284.3,102.1 284.5,90.4 284.7,106.9 284.9,99.9 285.1,95.4 285.3,118.7 285.5,106.9 285.7,97.1 285.9,123.9 286.1,110.0 286.3,102.1 286.5,122.7 286.7,105.0 286.9,113.2 287.1,104.6 287.3,88.7 287.5,111.9 287.7,96.8 287.9,84.8 288.1,110.5 288.3,98.5 288.5,99.7 288.7,120.7 288.9,100.1 289.1,116.3 289.3,115.2 289.4,99.6 289.6,119.6 289.8,107.2 290.0,93.0 290.2,117.1 290.4,108.8 290.6,100.9 290.8,111.9 291.0,94.7 291.2,96.3 291.4,111.6 291.6,94.0 291.8,97.4 292.0,105.6 292.2,97.5 292.4,120.6 292.6,115.2 292.8,105.0 293.0,116.6 293.2,104.5 293.4,108.4 293.6,120.8 293.8,91.7 294.0,98.8 294.2,111.7 294.4,96.0 294.6,111.3 294.8,99.0 295.0,94.9 295.2,114.4 295.4,100.7 295.6,103.6 295.8,123.2 296.0,102.0 296.2,98.7 296.4,118.5 296.6,103.5 296.8,99.2 297.0,104.1 297.2,97.0 297.4,114.1 297.6,105.8 297.8,104.9 298.0,126.1 298.2,105.3 298.4,104.7 298.6,116.5 298.8,96.0 299.0,99.8 299.2,93.3 299.4,86.0 299.6,108.7 299.8,106.1 300.0,102.5 300.2,120.2 300.4,105.6 300.6,108.8 300.8,127.3 301.0,111.1 301.2,102.7 301.3,110.0 301.5,101.0 301.7,104.5 301.9,105.3 302.1,85.8 302.3,103.0 302.5,98.7 302.7,97.7 302.9,116.6 303.1,101.5 303.3,110.0 303.5,124.2 303.7,104.2 303.9,118.2 304.1,109.0 304.3,84.6 304.5,111.3 304.7,104.1 304.9,94.8 305.1,117.7 305.3,101.1 305.5,107.9 305.7,126.2 305.9,98.7 306.1,107.8 306.3,109.5 306.5,85.9 306.7,101.4 306.9,100.5 307.1,95.5 307.3,113.9 307.5,104.5 307.7,101.3 307.9,119.5 308.1,105.1 308.3,116.8 308.5,120.7 308.7,94.0 308.9,119.0 309.1,114.0 309.3,95.6 309.5,107.2 309.7,85.4 309.9,91.4 310.1,113.0 310.3,93.3 310.5,100.2 310.7,114.8 310.9,106.5 311.1,117.7 311.3,128.1 311.5,105.4 311.7,104.6 311.9,99.7 312.1,95.2 312.3,114.0 312.5,101.9 312.7,91.1 312.9,116.2 313.1,106.9 313.3,104.7 313.4,116.3 313.6,94.4 313.8,107.9 314.0,107.4 314.2,93.7 314.4,115.0 314.6,104.1 314.8,95.0 315.0,116.1 315.2,104.8 315.4,94.2 315.6,120.2 315.8,106.9 316.0,99.7 316.2,117.3 316.4,109.6 316.6,114.6 316.8,108.6 317.0,84.8 317.2,107.9 317.4,105.5 317.6,90.6 317.8,105.3 318.0,102.5 318.2,97.0 318.4,118.7 318.6,109.4 318.8,110.6 319.0,115.9 319.2,91.4 319.4,111.8 319.6,116.7 319.8,97.6 320.0,109.1 320.2,114.2 320.4,97.7 320.6,114.4 320.8,102.3 321.0,92.0 321.2,107.6 321.4,100.1 321.6,95.0 321.8,113.7 322.0,99.3 322.2,106.0 322.4,125.8 322.6,101.0 322.8,106.6 323.0,110.0 323.2,103.5 323.4,114.4 323.6,107.3 323.8,97.1 324.0,120.2 324.2,105.1 324.4,97.4 324.6,109.5 324.8,93.0 325.0,100.8 325.2,110.6 325.4,95.1 325.5,108.1 325.7,116.7 325.9,100.6 326.1,116.5 326.3,114.9 326.5,88.1 326.7,109.4 326.9,107.8 327.1,99.0 327.3,118.6 327.5,104.0 327.7,103.2 327.9,117.8 328.1,97.5 328.3,109.1 328.5,110.2 328.7,92.2 328.9,103.1 329.1,108.6 329.3,94.0 329.5,114.6 329.7,102.8 329.9,98.4 330.1,120.2 330.3,92.8 330.5,106.8 330.7,122.9 330.9,98.6 331.1,109.2 331.3,124.7 331.5,95.4 331.7,114.4 331.9,105.6 332.1,84.1 332.3,113.7 332.5,93.7 332.7,96.6 332.9,112.3 333.1,92.4 333.3,110.5 333.5,123.7 333.7,95.8 333.9,114.2 334.1,106.3 334.3,105.5 334.5,123.4 334.7,103.0 334.9,101.1 335.1,124.0 335.3,93.2 335.5,106.4 335.7,109.6 335.9,77.5 336.1,102.4 336.3,104.7 336.5,94.7 336.7,116.5 336.9,110.0 337.1,99.4 337.3,125.0 337.5,107.0 337.6,107.0 337.8,112.2 338.0,95.9 338.2,118.8 338.4,111.4 338.6,95.9 338.8,110.4 339.0,100.4 339.2,96.9 339.4,109.2 339.6,95.1 339.8,99.4 340.0,113.5 340.2,97.7 340.4,110.3 340.6,118.7 340.8,94.8 341.0,115.7 341.2,115.6 341.4,87.0 341.6,114.0 341.8,111.8 342.0,100.1 342.2,115.4 342.4,101.3 342.6,101.0 342.8,116.5 343.0,89.7 343.2,106.0 343.4,108.6 343.6,93.0 343.8,118.5 344.0,106.1 344.2,97.2 344.4,120.0 344.6,98.7 344.8,100.9 345.0,124.2 345.2,85.3 345.4,101.2 345.6,116.8 345.8,99.3 346.0,119.1 346.2,111.1 346.4,90.9 346.6,122.5 346.8,105.0 347.0,93.6 347.2,118.4 347.4,94.6 347.6,97.0 347.8,113.3 348.0,97.9 348.2,104.3 348.4,104.3 348.6,98.4 348.8,121.0 349.0,98.8 349.2,102.6 349.4,127.7 349.6,104.3 349.7,102.7 349.9,123.2 350.1,101.0 350.3,100.8 350.5,102.7 350.7,88.8 350.9,109.3 351.1,104.6 351.3,92.4 351.5,112.2 351.7,102.4 351.9,96.5 352.1,126.8 352.3,110.0 352.5,102.6 352.7,110.5 352.9,105.5 353.1,118.4 353.3,111.2 353.5,99.0 353.7,106.3 353.9,98.5 354.1,97.9 354.3,107.9 354.5,98.4 354.7,96.1 354.9,112.1 355.1,104.8 355.3,111.4 355.5,116.0 355.7,101.8 355.9,111.4 356.1,113.7 356.3,95.8 356.5,97.4 356.7,108.0 356.9,105.8 357.1,112.1 357.3,98.5 357.5,101.3 357.7,116.0 357.9,101.2 358.1,108.3 358.3,115.4 358.5,106.9 358.7,105.1 358.9,103.2 359.1,97.3 359.3,103.1 359.5,96.7 359.7,96.9 359.9,115.6 360.1,95.8 360.3,105.2 360.5,128.7 360.7,107.8 360.9,114.8 361.1,117.6 361.3,102.1 361.5,105.4 361.6,101.6 361.8,94.4 362.0,103.8 362.2,93.8 362.4,90.7 362.6,115.4 362.8,100.6 363.0,109.2 363.2,115.5 363.4,110.2 363.6,115.9 363.8,100.4 364.0,104.5 364.2,115.2 364.4,105.5 364.6,92.9 364.8,109.2 365.0,100.1 365.2,96.3 365.4,114.5 365.6,105.7 365.8,108.1 366.0,115.2 366.2,99.4 366.4,106.6 366.6,106.7 366.8,95.1 367.0,107.9 367.2,104.5 367.4,88.1 367.6,110.8 367.8,115.7 368.0,105.8 368.2,118.6 368.4,103.2 368.6,109.0 368.8,110.0 369.0,98.7 369.2,106.6 369.4,102.4 369.6,90.0 369.8,111.1 370.0,109.8 370.2,87.0 370.4,114.7 370.6,99.8 370.8,105.6 371.0,126.1 371.2,98.8 371.4,103.1 371.6,116.9 371.8,99.8 372.0,114.1 372.2,111.2 372.4,89.5 372.6,111.8 372.8,105.4 373.0,94.1 373.2,120.0 373.4,103.9 373.6,90.8 373.7,111.6 373.9,98.8 374.1,102.8 374.3,112.7 374.5,93.9 374.7,112.1 374.9,117.2 375.1,91.0 375.3,124.1 375.5,111.0 375.7,93.2 375.9,122.7 376.1,97.4 376.3,97.7 376.5,116.3 376.7,88.2 376.9,106.2 377.1,115.4 377.3,89.9 377.5,114.7 377.7,106.2 377.9,86.4 378.1,117.7 378.3,104.7 378.5,103.0 378.7,115.6 378.9,96.1 379.1,108.1 379.3,120.3 379.5,101.0 379.7,112.5 379.9,108.9 380.1,89.9 380.3,114.5 380.5,102.8 380.7,95.6 380.9,114.7 381.1,90.7 381.3,96.7 381.5,113.9 381.7,99.3 381.9,110.7 382.1,113.7 382.3,100.4 382.5,116.7 382.7,111.9 382.9,95.5 383.1,114.7 383.3,103.8 383.5,91.8 383.7,109.3 383.9,99.0 384.1,102.8 384.3,116.0 384.5,100.9 384.7,116.1 384.9,110.3 385.1,94.4 385.3,116.0 385.5,99.5 385.7,88.8 385.8,121.7 386.0,100.7 386.2,93.0 386.4,109.0 386.6,103.2 386.8,119.6 387.0,115.1 387.2,98.3 387.4,114.4 387.6,106.6 387.8,98.7 388.0,119.0 388.2,101.4 388.4,85.7 388.6,100.7 388.8,99.6 389.0,99.8 389.2,109.8 389.4,99.0 389.6,117.8 389.8,115.4 390.0,103.8 390.2,126.0 390.4,106.6 390.6,97.4 390.8,118.1 391.0,98.9 391.2,90.8 391.4,108.2 391.6,93.0 391.8,109.6 392.0,112.5 392.2,93.3 392.4,111.7 392.6,106.5 392.8,99.3 393.0,120.4 393.2,101.9 393.4,99.5 393.6,112.5 393.8,96.1 394.0,102.1 394.2,116.3 394.4,104.9 394.6,104.2 394.8,107.5 395.0,101.3 395.2,119.8 395.4,108.2 395.6,101.2 395.8,116.5 396.0,95.0 396.2,89.7 396.4,113.9 396.6,99.1 396.8,91.8 397.0,112.5 397.2,104.1 397.4,107.9 397.6,107.6 397.8,107.0 397.9,121.0 398.1,108.2 398.3,99.0 398.5,119.4 398.7,103.6 398.9,91.4 399.1,117.2 399.3,105.5 399.5,95.1 399.7,101.3 399.9,92.8 400.1,107.8 400.3,108.0 400.5,95.6 400.7,120.2 400.9,104.5 401.1,96.0 401.3,124.5 401.5,111.1 401.7,106.4 401.9,116.5 402.1,101.7 402.3,101.4 402.5,114.8 402.7,94.0 402.9,105.8 403.1,97.5 403.3,95.5 403.5,110.5 403.7,100.4 403.9,96.3 404.1,111.3 404.3,106.1 404.5,108.0 404.7,123.6 404.9,98.9 405.1,103.5 405.3,112.8 405.5,109.5 405.7,113.7 405.9,102.4 406.1,92.7 406.3,109.8 406.5,98.6 406.7,106.6 406.9,114.3 407.1,93.5 407.3,94.1 407.5,111.5 407.7,108.0 407.9,101.9 408.1,109.0 408.3,105.7 408.5,115.9 408.7,103.5 408.9,105.0 409.1,114.8 409.3,97.1 409.5,96.9 409.7,115.9 409.9,103.4 410.0,100.4 410.2,107.7 410.4,109.0 410.6,108.8 410.8,103.8 411.0,106.3 411.2,104.1 411.4,103.1 411.6,95.6 411.8,111.6 412.0,108.4 412.2,97.8 412.4,103.0 412.6,107.3 412.8,104.4 413.0,114.7 413.2,123.4 413.4,100.0 413.6,108.4 413.8,100.9 414.0,109.5 414.2,111.5 414.4,93.0 414.6,96.6 414.8,98.3 415.0,98.3 415.2,106.8 415.4,107.9 415.6,103.0 415.8,107.1 416.0,110.3 416.2,110.0 416.4,122.2 416.6,104.8 416.8,101.5 417.0,115.2 417.2,100.1 417.4,106.7 417.6,99.7 417.8,94.9 418.0,103.2 418.2,107.7 418.4,94.8 418.6,106.9 418.8,104.2 419.0,98.8 419.2,115.6 419.4,108.7 419.6,111.7 419.8,104.3 420.0,102.1 420.2,108.8 420.4,112.9 420.6,106.1 420.8,105.2 421.0,99.3 421.2,101.4 421.4,110.8 421.6,111.8 421.8,102.7 421.9,100.4 422.1,98.9 422.3,105.9 422.5,112.4 422.7,97.5 422.9,101.7 423.1,107.5 423.3,104.3 423.5,103.6 423.7,112.5 423.9,106.8 424.1,104.2 424.3,112.8 424.5,110.9 424.7,110.8 424.9,103.0 425.1,103.2 425.3,113.7 425.5,104.3 425.7,98.3 425.9,97.8 426.1,97.2 426.3,101.2 426.5,103.4 426.7,106.3 426.9,103.5 427.1,104.7 427.3,108.1 427.5,123.7 427.7,112.0 427.9,109.2 428.1,118.4 428.3,102.3 428.5,101.7 428.7,101.1 428.9,105.0 429.1,97.8 429.3,92.3 429.5,97.6 429.7,102.8 429.9,112.5 430.1,103.7 430.3,110.1 430.5,114.4 430.7,110.0 430.9,111.4 431.1,108.6 431.3,105.8 431.5,105.3 431.7,103.5 431.9,103.7 432.1,107.1 432.3,97.0 432.5,104.0 432.7,113.8 432.9,104.6 433.1,115.4 433.3,97.2 433.5,98.8 433.7,113.6 433.9,96.7 434.0,103.2 434.2,101.3 434.4,94.7 434.6,107.9 434.8,112.8 435.0,114.4 435.2,114.2 435.4,111.8 435.6,109.8 435.8,115.5 436.0,101.2 436.2,100.9 436.4,107.4 436.6,87.4 436.8,99.6 437.0,96.0 437.2,103.4 437.4,106.4 437.6,100.4 437.8,108.5 438.0,115.9 438.2,110.2 438.4,105.2 438.6,116.2 438.8,106.4 439.0,109.0 439.2,114.3 439.4,97.9 439.6,101.1 439.8,96.2 440.0,107.2 440.2,116.0 440.4,101.2 440.6,106.0 440.8,100.1 441.0,105.9 441.2,102.6 441.4,110.4 441.6,96.5 441.8,97.6 442.0,110.0 442.2,107.0 442.4,119.9 442.6,104.4 442.8,111.7 443.0,118.1 443.2,106.3 443.4,111.5 443.6,102.4 443.8,102.4 444.0,96.5 444.2,103.1 444.4,103.4 444.6,92.0 444.8,103.0 445.0,102.1 445.2,109.3 445.4,107.1 445.6,116.2 445.8,115.6 446.0,106.4 446.1,112.9 446.3,110.7 446.5,114.8 446.7,98.8 446.9,97.8 447.1,95.4 447.3,100.2 447.5,107.7 447.7,100.7 447.9,109.7 448.1,99.9 448.3,109.9 448.5,115.2 448.7,107.8 448.9,105.0 449.1,93.5 449.3,103.6 449.5,101.1 449.7,109.1 449.9,111.0 450.1,101.4 450.3,115.7 450.5,109.6 450.7,113.0 450.9,104.2 451.1,107.7 451.3,110.9 451.5,105.2 451.7,105.0 451.9,96.5 452.1,94.1 452.3,92.6 452.5,106.7 452.7,100.4 452.9,99.2 453.1,108.2 453.3,110.6 453.5,121.2 453.7,121.2 453.9,120.4 454.1,118.7 454.3,99.8 454.5,100.7 454.7,103.0 454.9,100.7 455.1,92.9 455.3,99.0 455.5,100.1 455.7,93.4 455.9,108.6 456.1,104.5 456.3,115.4 456.5,100.9 456.7,113.7 456.9,113.6 457.1,109.0 457.3,116.1 457.5,111.1 457.7,108.7 457.9,99.9 458.1,106.0 458.2,99.5 458.4,96.7 458.6,100.3 458.8,107.2 459.0,107.4 459.2,103.7 459.4,103.0 459.6,110.4 459.8,105.4 460.0,106.8 460.2,99.6 460.4,108.0 460.6,97.8 460.8,110.1 461.0,119.3 461.2,107.8 461.4,113.0 461.6,99.9 461.8,108.0 462.0,98.3 462.2,107.1 462.4,104.2 462.6,100.4 462.8,102.3 463.0,108.1 463.2,112.4 463.4,96.9 463.6,107.3 463.8,106.8 464.0,103.5 464.2,107.2 464.4,105.3 464.6,106.5 464.8,111.5 465.0,105.7 465.2,114.4 465.4,109.7 465.6,99.0 465.8,103.0 466.0,108.0 466.2,106.6 466.4,109.8 466.6,107.4 466.8,98.5 467.0,102.5 467.2,98.0 467.4,104.1 467.6,100.2 467.8,97.1 468.0,105.6 468.2,114.7 468.4,109.3 468.6,117.8 468.8,119.0 469.0,110.7 469.2,113.8 469.4,103.6 469.6,100.0 469.8,101.4 470.0,92.2 470.1,102.8 470.3,109.2 470.5,98.3 470.7,109.2 470.9,94.1 471.1,102.0 471.3,108.5 471.5,108.5 471.7,114.1 471.9,110.8 472.1,112.0 472.3,110.9 472.5,112.3 472.7,107.7 472.9,110.2 473.1,105.7 473.3,93.4 473.5,100.4 473.7,104.3 473.9,106.7 474.1,102.9 474.3,99.9 474.5,107.1 474.7,103.0 474.9,101.2 475.1,102.1 475.3,108.8 475.5,106.8 475.7,115.1 475.9,123.3 476.1,110.0 476.3,107.7 476.5,98.0 476.7,105.4 476.9,107.3 477.1,96.6 477.3,101.3 477.5,100.7 477.7,101.5 477.9,106.7 478.1,116.5 478.3,98.8 478.5,99.9 478.7,111.3 478.9,99.1 479.1,109.6 479.3,98.1 479.5,110.3 479.7,116.2 479.9,107.4 480.1,120.3 480.3,107.5 480.5,102.1 480.7,97.3 480.9,104.9 481.1,109.9 481.3,103.4 481.5,103.8 481.7,98.4 481.9,102.0 482.1,98.7 482.2,107.2 482.4,100.4 482.6,97.6 482.8,112.9 483.0,118.2 483.2,121.7 483.4,107.0 483.6,115.6 483.8,108.2 484.0,101.9 484.2,111.0 484.4,97.3 484.6,96.0 484.8,91.0 485.0,104.1 485.2,110.4 485.4,107.3 485.6,104.7 485.8,98.9 486.0,113.4 486.2,98.8 486.4,111.2 486.6,108.0 486.8,103.4 487.0,119.8 487.2,108.0 487.4,110.6 487.6,100.4 487.8,102.0 488.0,106.8 488.2,101.6 488.4,109.1 488.6,107.2 488.8,104.3 489.0,99.9 489.2,110.5 489.4,106.4 489.6,96.2 489.8,99.8 490.0,93.3 490.2,105.4 490.4,97.5 490.6,122.8 490.8,121.6 491.0,111.6 491.2,115.4 491.4,106.1 491.6,110.3 491.8,96.9 492.0,106.8 492.2,99.2 492.4,94.2 492.6,101.4 492.8,100.6 493.0,111.5 493.2,90.1 493.4,105.9 493.6,121.1 493.8,100.2 494.0,105.2 494.2,110.0 494.3,120.6 494.5,112.1 494.7,113.0 494.9,112.4 495.1,99.6 495.3,91.5 495.5,95.0 495.7,115.2 495.9,100.1 496.1,100.1 496.3,110.1 496.5,105.4 496.7,104.9 496.9,99.7 497.1,104.2 497.3,101.5 497.5,104.3 497.7,104.8 497.9,115.0 498.1,110.7 498.3,107.8 498.5,127.5 498.7,108.1 498.9,105.6 499.1,108.6 499.3,90.9 499.5,101.6 499.7,94.1 499.9,102.4 500.1,111.7 500.3,97.7 500.5,101.6 500.7,102.6 500.9,107.6 501.1,103.7 501.3,115.0 501.5,108.5 501.7,114.3 501.9,116.2 502.1,103.4 502.3,114.8 502.5,94.9 502.7,100.1 502.9,108.6 503.1,99.7 503.3,107.0 503.5,100.5 503.7,101.8 503.9,111.4 504.1,115.3 504.3,105.9 504.5,97.6 504.7,100.4 504.9,94.5 505.1,106.4 505.3,98.8 505.5,115.4 505.7,117.2 505.9,109.9 506.1,117.3 506.3,109.5 506.4,107.0 506.6,97.9 506.8,105.9 507.0,101.7 507.2,98.3 507.4,100.6 507.6,95.2 507.8,106.7 508.0,95.1 508.2,106.8 508.4,122.6 508.6,101.3 508.8,107.5 509.0,110.2 509.2,119.4 509.4,112.4 509.6,106.7 509.8,112.6 510.0,98.9 510.2,90.8 510.4,97.7 510.6,111.5 510.8,104.0 511.0,99.8 511.2,115.5 511.4,108.5 511.6,105.5 511.8,95.9 512.0,104.4 512.2,106.7 512.4,99.0 512.6,104.5 512.8,112.0 513.0,107.7 513.2,107.7 513.4,127.2 513.6,114.8 513.8,105.6 514.0,106.7 514.2,96.6 514.4,103.4 514.6,91.6 514.8,102.6 515.0,113.7 515.2,95.9 515.4,103.1 515.6,98.2 515.8,110.1 516.0,103.3 516.2,111.1 516.4,112.1 516.6,113.7 516.8,119.4 517.0,108.0 517.2,110.5 517.4,94.0 517.6,99.7 517.8,102.2 518.0,101.0 518.2,109.7 518.4,91.8 518.5,101.1 518.7,109.9 518.9,112.8 519.1,111.9 519.3,99.2 519.5,99.7 519.7,103.2 519.9,107.1 520.1,100.9 520.3,112.7 520.5,113.7 520.7,108.2 520.9,117.5 521.1,100.8 521.3,102.5 521.5,98.0 521.7,109.6 521.9,115.3 522.1,98.5 522.3,106.2 522.5,93.0 522.7,107.4 522.9,98.8 523.1,106.7 523.3,107.6 523.5,93.1 523.7,108.8 523.9,100.4 524.1,120.9 524.3,119.6 524.5,112.4 524.7,117.8 524.9,102.7 525.1,100.6 525.3,97.9 525.5,105.1 525.7,109.2 525.9,98.9 526.1,106.9 526.3,100.2 526.5,102.8 526.7,91.2 526.9,105.9 527.1,109.8 527.3,107.6 527.5,108.9 527.7,105.2 527.9,117.0 528.1,111.8 528.3,121.6 528.5,109.6 528.7,103.3 528.9,97.1 529.1,93.3 529.3,104.9 529.5,93.0 529.7,106.5 529.9,110.2 530.1,105.5 530.3,106.6 530.4,96.6 530.6,112.6 530.8,102.2 531.0,111.7 531.2,119.8 531.4,107.5 531.6,110.1 531.8,101.8 532.0,112.0 532.2,99.6 532.4,96.2 532.6,104.4 532.8,99.9 533.0,110.1 533.2,95.9 533.4,112.5 533.6,108.2 533.8,110.1 534.0,108.9 534.2,100.1 534.4,102.5 534.6,95.9 534.8,108.5 535.0,109.3 535.2,107.0 535.4,114.3 535.6,120.3 535.8,105.9 536.0,102.9 536.2,108.0 536.4,96.3 536.6,106.7 536.8,111.4 537.0,94.5 537.2,104.6 537.4,87.5 537.6,106.4 537.8,108.0 538.0,101.4 538.2,109.9 538.4,100.5 538.6,107.8 538.8,112.6 539.0,120.9 539.2,112.6 539.4,113.1 539.6,107.7 539.8,102.7 540.0,101.5 540.2,87.8 540.4,102.3 540.6,108.3 540.8,95.2 541.0,114.7 541.2,106.6 541.4,96.3 541.6,98.8 541.8,112.1 542.0,114.4 542.2,108.3 542.4,108.3 542.5,98.3 542.7,106.4 542.9,111.8 543.1,119.5 543.3,105.5 543.5,94.9 543.7,104.2 543.9,100.9 544.1,109.8 544.3,100.3 544.5,105.7 544.7,107.2 544.9,104.0 545.1,101.8 545.3,97.8 545.5,103.3 545.7,91.7 545.9,115.6 546.1,119.7 546.3,105.1 546.5,114.0 546.7,107.7 546.9,113.1 547.1,110.8 547.3,107.8 547.5,99.6 547.7,91.3 547.9,104.8 548.1,93.9 548.3,104.6 548.5,102.5 548.7,104.9 548.9,110.1 549.1,106.0 549.3,109.3 549.5,102.6 549.7,111.1 549.9,107.1 550.1,108.0 550.3,114.2 550.5,108.8 550.7,101.7 550.9,98.2 551.1,106.1 551.3,105.5 551.5,110.7 551.7,109.5 551.9,99.4 552.1,105.2 552.3,99.3 552.5,104.0 552.7,105.1 552.9,98.3 553.1,102.1 553.3,97.7 553.5,110.7 553.7,108.0 553.9,114.3 554.1,123.2 554.3,109.7 554.5,110.3 554.6,101.0 554.8,98.9 555.0,96.7 555.2,98.5 555.4,107.5 555.6,98.0 555.8,105.0 556.0,99.7 556.2,104.9 556.4,110.1 556.6,110.7 556.8,113.2 557.0,105.8 557.2,111.5 557.4,103.1 557.6,104.2 557.8,113.7 558.0,102.5 558.2,109.9 558.4,93.2 558.6,101.9 558.8,97.1 559.0,110.6 559.2,103.1 559.4,107.4 559.6,108.5 559.8,100.9 560.0,99.5 560.2,104.0 560.4,102.4 560.6,101.8 560.8,110.8 561.0,120.4 561.2,102.4 561.4,108.8 561.6,109.9 561.8,114.8 562.0,105.9 562.2,104.4 562.4,102.2 562.6,94.5 562.8,99.1 563.0,98.7 563.2,101.7 563.4,109.7 563.6,96.7 563.8,111.4 564.0,100.1 564.2,104.4 564.4,101.6 564.6,118.3 564.8,110.9 565.0,114.3 565.2,104.7 565.4,110.4 565.6,99.5 565.8,102.7 566.0,107.3 566.2,112.2 566.4,97.0 566.6,106.5 566.7,102.4 566.9,104.0 567.1,97.2 567.3,104.4 567.5,106.7 567.7,105.7 567.9,98.7 568.1,102.7 568.3,114.1 568.5,105.2 568.7,111.1 568.9,117.3 569.1,106.4 569.3,112.1 569.5,95.5 569.7,99.1 569.9,99.5 570.1,105.1 570.3,109.3 570.5,103.9 570.7,99.1 570.9,103.8 571.1,103.9 571.3,104.9 571.5,113.4 571.7,110.0 571.9,102.3 572.1,105.9 572.3,104.3 572.5,106.1 572.7,108.5 572.9,98.9 573.1,112.0 573.3,101.1 573.5,104.9 573.7,102.1 573.9,99.1 574.1,101.9 574.3,109.7 574.5,105.4 574.7,99.8 574.9,98.0 575.1,98.6 575.3,99.3 575.5,106.7 575.7,110.8 575.9,121.3 576.1,105.8 576.3,110.4 576.5,110.3 576.7,113.6 576.9,106.8 577.1,107.5 577.3,98.7 577.5,94.3 577.7,99.3 577.9,99.1 578.1,96.8 578.3,108.2 578.5,98.6 578.7,115.5 578.8,104.9 579.0,104.6 579.2,107.6 579.4,110.7 579.6,117.8 579.8,112.4 580.0,103.7 580.2,99.0 580.4,100.4 580.6,102.7 580.8,108.0 581.0,103.2 581.2,102.4 581.4,113.1 581.6,103.5 581.8,107.5 582.0,109.2 582.2,104.9 582.4,105.5 582.6,107.6 582.8,98.8 583.0,95.7 583.2,104.7 583.4,106.6 583.6,114.1 583.8,111.1 584.0,109.6 584.2,104.9 584.4,101.4 584.6,107.9 584.8,107.4 585.0,101.1 585.2,110.0 585.4,98.1 585.6,99.0 585.8,97.9 586.0,107.0 586.2,101.1 586.4,115.8 586.6,103.6 586.8,101.3 587.0,114.1 587.2,113.3 587.4,104.4 587.6,112.9 587.8,100.2 588.0,109.7 588.2,100.2 588.4,97.3 588.6,94.5 588.8,98.0 589.0,110.5 589.2,110.4 589.4,96.8 589.6,102.1 589.8,105.4 590.0,102.6 590.2,109.9 590.4,115.3 590.6,105.6 590.7,118.8 590.9,106.6 591.1,107.1 591.3,106.5 591.5,106.2 591.7,102.1 591.9,109.1 592.1,96.4 592.3,95.9 592.5,99.4 592.7,106.7 592.9,103.9 593.1,107.9 593.3,103.7 593.5,111.7 593.7,105.5 593.9,106.8 594.1,102.4 594.3,102.1 594.5,122.1 594.7,111.7 594.9,105.2 595.1,94.6 595.3,108.1 595.5,106.5 595.7,108.2 595.9,105.2 596.1,102.1 596.3,105.0 596.5,100.2 596.7,99.3 596.9,104.9 597.1,98.8 597.3,104.1 597.5,105.0 597.7,100.6 597.9,100.4 598.1,115.1 598.3,114.8 598.5,115.2 598.7,104.3 598.9,108.3 599.1,106.7 599.3,99.5 599.5,103.0 599.7,104.7 599.9,94.5 600.1,115.2 600.3,98.9 600.5,106.7 600.7,95.0 600.9,107.2 601.1,108.2 601.3,117.1 601.5,98.8 601.7,107.4 601.9,109.3 602.1,104.8 602.3,108.4 602.5,105.0 602.7,102.3 602.8,111.4 603.0,104.4 603.2,103.3 603.4,97.6 603.6,107.1 603.8,110.2 604.0,107.0 604.2,96.8 604.4,98.3 604.6,104.2 604.8,104.9 605.0,110.5 605.2,106.8 605.4,105.6 605.6,116.6 605.8,110.0 606.0,110.1 606.2,102.3 606.4,105.9 606.6,106.0 606.8,116.9 607.0,98.6 607.2,93.1 607.4,106.3 607.6,99.0 607.8,107.7 608.0,107.1 608.2,101.6 608.4,111.7 608.6,106.6 608.8,105.5 609.0,107.7 609.2,106.2 609.4,115.7 609.6,111.8 609.8,102.5 610.0,96.4 610.2,108.1 610.4,100.4 610.6,110.3 610.8,104.2 611.0,102.9 611.2,105.8 611.4,104.6 611.6,95.5 611.8,108.6 612.0,100.2 612.2,108.4 612.4,112.0 612.6,107.3 612.8,92.5 613.0,114.7 613.2,114.2 613.4,116.1 613.6,104.0 613.8,104.0 614.0,111.1 614.2,102.5 614.4,100.6 614.6,106.9 614.8,94.2 614.9,107.3 615.1,105.9 615.3,94.5 615.5,96.5 615.7,111.7 615.9,103.5 616.1,117.6 616.3,107.6 616.5,101.0 616.7,114.4 616.9,114.0 617.1,107.6 617.3,116.2 617.5,102.6 617.7,104.0 617.9,100.3 618.1,103.0 618.3,97.9 618.5,99.9 618.7,105.6 618.9,113.6 619.1,98.0 619.3,101.9 619.5,115.2 619.7,101.5 619.9,106.3 620.1,111.7 620.3,102.8 620.5,109.0 620.7,112.4 620.9,97.9 621.1,100.8 621.3,111.6 621.5,103.8 621.7,114.6 621.9,108.3 622.1,97.3 622.3,113.2 622.5,103.3 622.7,104.3 622.9,106.0 623.1,101.8 623.3,108.9 623.5,105.5 623.7,102.0 623.9,106.8 624.1,107.5 624.3,107.0 624.5,118.2 624.7,105.2 624.9,98.1 625.1,122.2 625.3,96.8 625.5,100.9 625.7,105.4 625.9,95.9 626.1,104.6 626.3,107.5 626.5,90.5 626.7,97.2 626.9,106.4 627.0,108.4 627.2,116.1 627.4,111.0 627.6,91.1 627.8,117.6 628.0,101.1 628.2,115.0 628.4,104.4 628.6,97.4 628.8,109.8 629.0,103.6 629.2,94.8 629.4,107.9 629.6,102.6 629.8,99.9 630.0,108.5 630.2,101.1 630.4,88.5 630.6,114.8 630.8,97.5 631.0,112.8 631.2,109.0 631.4,102.5 631.6,116.4 631.8,113.6 632.0,101.4 632.2,103.9 632.4,103.0 632.6,105.5 632.8,108.6 633.0,105.3 633.2,91.3 633.4,106.3 633.6,100.3 633.8,107.6 634.0,103.2 634.2,102.2 634.4,113.9 634.6,110.1 634.8,104.5 635.0,108.2 635.2,108.9 635.4,111.1 635.6,109.8 635.8,102.2 636.0,95.3 636.2,108.3 636.4,105.1 636.6,107.9 636.8,108.5 637.0,96.4 637.2,112.8 637.4,109.1 637.6,106.1 637.8,102.8 638.0,103.2 638.2,107.9 638.4,108.2 638.6,108.9 638.8,99.9 639.0,107.1 639.1,114.6 639.3,115.4 639.5,106.1 639.7,101.7 639.9,111.0 640.1,104.1 640.3,107.2 640.5,100.1 640.7,103.0 640.9,101.9 641.1,96.3 641.3,93.1 641.5,93.2 641.7,99.7 641.9,110.3 642.1,113.2 642.3,116.0 642.5,106.0 642.7,115.1 642.9,110.2 643.1,109.9 643.3,98.4 643.5,111.7 643.7,101.7 643.9,106.0 644.1,104.7 644.3,98.3 644.5,95.7 644.7,110.6 644.9,106.5 645.1,103.6 645.3,98.5 645.5,112.1 645.7,111.2 645.9,106.9 646.1,102.8 646.3,103.3 646.5,105.9 646.7,105.5 646.9,106.3 647.1,106.0 647.3,108.7 647.5,102.6 647.7,107.5 647.9,108.0 648.1,103.7 648.3,107.2 648.5,108.4 648.7,100.7 648.9,98.9 649.1,103.7 649.3,109.3 649.5,107.0 649.7,109.6 649.9,107.1 650.1,109.8 650.3,113.7 650.5,117.8 650.7,103.2 650.9,98.9 651.0,100.0 651.2,100.9 651.4,97.9 651.6,111.8 651.8,99.1 652.0,109.1 652.2,102.5 652.4,105.6 652.6,102.7 652.8,112.3 653.0,106.4 653.2,115.8 653.4,107.4 653.6,110.1 653.8,109.5 654.0,112.4 654.2,104.8 654.4,109.5 654.6,100.8 654.8,108.7 655.0,96.0 655.2,101.8 655.4,105.1 655.6,104.2 655.8,104.7 656.0,113.7 656.2,99.2 656.4,98.4 656.6,104.1 656.8,104.6 657.0,105.3 657.2,113.4 657.4,104.9 657.6,115.5 657.8,106.4 658.0,110.3 658.2,105.1 658.4,103.9 658.6,106.6 658.8,107.3 659.0,98.6 659.2,102.1 659.4,103.0 659.6,102.2 659.8,100.6 660.0,99.1 660.2,96.4 660.4,103.9 660.6,98.0 660.8,110.3 661.0,112.9 661.2,106.5 661.4,113.3 661.6,109.4 661.8,108.2 662.0,100.4 662.2,105.5 662.4,98.7 662.6,108.1 662.8,94.4 663.0,106.2 663.1,101.7 663.3,104.7 663.5,106.1 663.7,112.4 663.9,103.2 664.1,116.2 664.3,105.9 664.5,106.6 664.7,97.5 664.9,110.7 665.1,105.3 665.3,116.1 665.5,101.3 665.7,109.7 665.9,103.1 666.1,101.4 666.3,103.9 666.5,111.8 666.7,105.4 666.9,116.9 667.1,104.6 667.3,109.2 667.5,92.9 667.7,104.3 667.9,100.6 668.1,115.9 668.3,101.0 668.5,113.0 668.7,110.1 668.9,111.9 669.1,110.8 669.3,112.7 669.5,105.1 669.7,112.2 669.9,95.8 670.1,105.0 670.3,97.8 670.5,108.5 670.7,101.0 670.9,110.9 671.1,96.7 671.3,106.8 671.5,108.3 671.7,108.5 671.9,108.8 672.1,110.6 672.3,106.4 672.5,113.7 672.7,103.2 672.9,108.8 673.1,103.7 673.3,102.8 673.5,100.2 673.7,108.7 673.9,102.0 674.1,100.0 674.3,105.4 674.5,102.2 674.7,106.2 674.9,102.7 675.1,109.4 675.2,112.2 675.4,102.6 675.6,102.9 675.8,103.7 676.0,110.6 676.2,109.0 676.4,109.5 676.6,105.0 676.8,99.3 677.0,102.4 677.2,98.6 677.4,104.8 677.6,98.7 677.8,105.8 678.0,109.8 678.2,101.3 678.4,97.6 678.6,102.1 678.8,103.3 679.0,112.4 679.2,105.0 679.4,109.2 679.6,101.2 679.8,107.2 680.0,101.9 680.2,114.3 680.4,102.8 680.6,107.8 680.8,101.8 681.0,99.9 681.2,100.1 681.4,105.1 681.6,98.9 681.8,109.6 682.0,100.8 682.2,99.2 682.4,102.1 682.6,106.4 682.8,103.9 683.0,113.7 683.2,99.3 683.4,106.1 683.6,108.0 683.8,103.0 684.0,106.6 684.2,111.8 684.4,104.4 684.6,110.0 684.8,99.6 685.0,104.8 685.2,104.7 685.4,103.7 685.6,101.4 685.8,109.7 686.0,98.9 686.2,108.6 686.4,106.7 686.6,105.8 686.8,104.3 687.0,111.8 687.2,103.1 687.3,112.4 687.5,105.7 687.7,103.3 687.9,110.3 688.1,102.8 688.3,98.0 688.5,112.9 688.7,101.1 688.9,103.5 689.1,105.7 689.3,110.2 689.5,108.5 689.7,106.0 689.9,102.7 690.1,112.9 690.3,107.4 690.5,108.6 690.7,113.9 690.9,106.3 691.1,105.4 691.3,112.3 691.5,104.1 691.7,110.5 691.9,101.7 692.1,97.7 692.3,105.9 692.5,111.6 692.7,101.0 692.9,113.1 693.1,106.5 693.3,96.7 693.5,102.0 693.7,109.4 693.9,102.6 694.1,108.8 694.3,103.7 694.5,117.1 694.7,102.4 694.9,113.5 695.1,116.0 695.3,108.8 695.5,106.3 695.7,102.8 695.9,95.8 696.1,102.9 696.3,110.6 696.5,97.4 696.7,101.0 696.9,106.9 697.1,95.7 697.3,110.6 697.5,106.8 697.7,105.6 697.9,113.4 698.1,112.3 698.3,110.8 698.5,106.7 698.7,109.8 698.9,106.4 699.1,98.3 699.3,100.2 699.4,97.7 699.6,93.1 699.8,98.6 700.0,108.5 700.2,102.4 700.4,104.3 700.6,112.8 700.8,105.1 701.0,117.1 701.2,106.0 701.4,106.5 701.6,103.0 701.8,111.6 702.0,105.0 702.2,101.0 702.4,103.4 702.6,108.4 702.8,110.3 703.0,112.8 703.2,106.5 703.4,107.8 703.6,108.3 703.8,114.5 704.0,104.2 704.2,107.5 704.4,99.2 704.6,99.3 704.8,101.2 705.0,102.7 705.2,101.6 705.4,106.0 705.6,110.1 705.8,111.6 706.0,112.4 706.2,115.3 706.4,112.1 706.6,113.4 706.8,103.4 707.0,100.5 707.2,90.7 707.4,102.1 707.6,102.5 707.8,96.3 708.0,101.7 708.2,99.5 708.4,109.6 708.6,111.2 708.8,112.6 709.0,108.4 709.2,106.3 709.4,110.5 709.6,104.3 709.8,108.0 710.0,102.7 710.2,100.6 710.4,103.7 710.6,97.5 710.8,102.3 711.0,97.1 711.2,109.4 711.3,104.3 711.5,106.8 711.7,105.3 711.9,107.8 712.1,112.7 712.3,111.7 712.5,109.7 712.7,104.9 712.9,103.4 713.1,108.3 713.3,95.2 713.5,111.4 713.7,101.5 713.9,107.7 714.1,107.4 714.3,108.6 714.5,104.9 714.7,105.0 714.9,108.9 715.1,104.7 715.3,107.2 715.5,104.5 715.7,104.8 715.9,113.6 716.1,101.2 716.3,104.4 716.5,100.3 716.7,110.1 716.9,107.0 717.1,106.7 717.3,110.4 717.5,108.9 717.7,106.9 717.9,110.9 718.1,101.4 718.3,101.2 718.5,101.0 718.7,108.4 718.9,95.6 719.1,101.7 719.3,96.9 719.5,106.4 719.7,110.3 719.9,113.2 720.1,113.8 720.3,113.5 720.5,107.3 720.7,108.2 720.9,101.4 721.1,104.7 721.3,96.0 721.5,109.6 721.7,104.8 721.9,95.7 722.1,99.0 722.3,107.3 722.5,103.4 722.7,100.5 722.9,104.7 723.1,102.1 723.3,110.9 723.4,105.8 723.6,105.7 723.8,102.1 724.0,107.4 724.2,106.7 724.4,107.9 724.6,100.6 724.8,105.2 725.0,102.6 725.2,108.5 725.4,100.4 725.6,104.8 725.8,97.0 726.0,115.5 726.2,96.5 726.4,110.0 726.6,97.9 726.8,103.3 727.0,101.6 727.2,115.2 727.4,99.9 727.6,105.9 727.8,105.2 728.0,111.2 728.2,99.8 728.4,110.7 728.6,94.2 728.8,113.6 729.0,98.6 729.2,111.3 729.4,96.4 729.6,116.4 729.8,102.1 730.0,103.1 730.2,99.7 730.4,103.1 730.6,96.5 730.8,116.2 731.0,104.4 731.2,113.2 731.4,100.7 731.6,116.7 731.8,104.3 732.0,106.3 732.2,101.7 732.4,112.0 732.6,109.5 732.8,109.6 733.0,101.2 733.2,93.2 733.4,103.3 733.6,109.0 733.8,100.8 734.0,114.0 734.2,104.2 734.4,111.4 734.6,110.9 734.8,114.6 735.0,105.5 735.2,112.6 735.4,114.0 735.5,113.1 735.7,111.6 735.9,105.9 736.1,100.2 736.3,102.6 736.5,99.6 736.7,100.0 736.9,100.4 737.1,111.1 737.3,114.4 737.5,101.7 737.7,109.8 737.9,110.9 738.1,110.4 738.3,109.7 738.5,112.4 738.7,102.7 738.9,105.0 739.1,110.1 739.3,112.8 739.5,107.8 739.7,105.7 739.9,100.2 740.1,106.2 740.3,101.4 740.5,109.0 740.7,102.2 740.9,111.5 741.1,106.9 741.3,96.9 741.5,103.0 741.7,104.5 741.9,101.6 742.1,101.2 742.3,111.3 742.5,106.6 742.7,109.9 742.9,109.2 743.1,109.9 743.3,111.9 743.5,104.4 743.7,110.8 743.9,103.9 744.1,98.9 744.3,96.5 744.5,91.9 744.7,105.5 744.9,102.2 745.1,101.9 745.3,110.6 745.5,106.6 745.7,104.6 745.9,104.7 746.1,114.4 746.3,98.2 746.5,105.9 746.7,107.2 746.9,107.8 747.1,106.4 747.3,98.6 747.5,109.6 747.6,98.6 747.8,101.7 748.0,105.3 748.2,107.2 748.4,104.2 748.6,105.8 748.8,110.4 749.0,105.1 749.2,109.2 749.4,103.0 749.6,110.9 749.8,109.6 750.0,99.1 750.2,116.8 750.4,103.2 750.6,115.2 750.8,110.9 751.0,108.0 751.2,106.0 751.4,100.6 751.6,105.6 751.8,95.9 752.0,105.9 752.2,101.7 752.4,107.0 752.6,105.0 752.8,105.0 753.0,110.6 753.2,104.5 753.4,114.3 753.6,110.7 753.8,107.2 754.0,99.4 754.2,104.0 754.4,113.9 754.6,102.8 754.8,102.2 755.0,99.1 755.2,103.9 755.4,105.1 755.6,90.3 755.8,111.9 756.0,97.5 756.2,106.9 756.4,108.4 756.6,118.8 756.8,106.8 757.0,109.0 757.2,111.9 757.4,100.1 757.6,107.2 757.8,102.3 758.0,115.5 758.2,111.0 758.4,104.7 758.6,107.1 758.8,102.9 759.0,106.9 759.2,108.1 759.4,103.4 759.6,103.2 759.7,98.4 759.9,103.7 760.1,102.6 760.3,105.7 760.5,93.4 760.7,111.6 760.9,110.9 761.1,100.1 761.3,121.0 761.5,105.3 761.7,110.8 761.9,106.4 762.1,113.9 762.3,105.5 762.5,100.1 762.7,100.4 762.9,95.8 763.1,102.2 763.3,92.5 763.5,107.0 763.7,106.7 763.9,106.1 764.1,109.2 764.3,96.0 764.5,114.7 764.7,108.4 764.9,101.3 765.1,99.9 765.3,92.2 765.5,106.6 765.7,101.2 765.9,106.7 766.1,97.5 766.3,113.4 766.5,106.1 766.7,102.8 766.9,107.6 767.1,101.3 767.3,98.3 767.5,106.2 767.7,113.6 767.9,108.0 768.1,103.0 768.3,107.1 768.5,103.8 768.7,107.0 768.9,100.5 769.1,114.4 769.3,112.6 769.5,107.0 769.7,111.7 769.9,100.3 770.1,105.3 770.3,108.6 770.5,110.5 770.7,104.7 770.9,102.2 771.1,104.9 771.3,99.6 771.5,113.8 771.6,101.5 771.8,116.4 772.0,110.3 772.2,110.3 772.4,106.2 772.6,111.6 772.8,100.4 773.0,110.3 773.2,109.8 773.4,103.3 773.6,95.4 773.8,106.9 774.0,98.0 774.2,104.0 774.4,98.1 774.6,111.3 774.8,102.2 775.0,107.9 775.2,110.9 775.4,119.8 775.6,102.6 775.8,108.8 776.0,113.9 776.2,101.0 776.4,99.2 776.6,108.6 776.8,95.7 777.0,102.5 777.2,99.7 777.4,107.5 777.6,107.9 777.8,103.7 778.0,98.6 778.2,114.2 778.4,100.2 778.6,100.9 778.8,114.5 779.0,100.2 779.2,99.2 779.4,102.3 779.6,102.0 779.8,105.0 780.0,110.8 780.2,108.8 780.4,116.4 780.6,99.8 780.8,103.2 781.0,110.8 781.2,93.8 781.4,91.7 781.6,115.7 781.8,96.4 782.0,112.8 782.2,93.0 782.4,104.4 782.6,100.5 782.8,114.5 783.0,106.7 783.2,124.1 783.4,99.3 783.6,110.8 783.7,113.1 783.9,107.2 784.1,107.0 784.3,115.3 784.5,94.3 784.7,110.1 784.9,89.2 785.1,112.7 785.3,101.5 785.5,108.3 785.7,104.8 785.9,104.6 786.1,99.7 786.3,111.0 786.5,111.3 786.7,100.2 786.9,107.6 787.1,110.9 787.3,114.1 787.5,113.3 787.7,96.5 787.9,118.2 788.1,100.2 788.3,105.4 788.5,105.1 788.7,103.0 788.9,101.6 789.1,104.5 789.3,116.5 789.5,106.1 789.7,102.0 789.9,113.6 790.1,110.5 790.3,107.3 790.5,99.4 790.7,118.7 790.9,97.3 791.1,115.9 791.3,106.7 791.5,97.9 791.7,111.4 791.9,104.0 792.1,110.8 792.3,96.7 792.5,99.2 792.7,102.1 792.9,113.8 793.1,107.9 793.3,94.8 793.5,106.7 793.7,102.1 793.9,107.7 794.1,104.3 794.3,105.9 794.5,109.3 794.7,94.5 794.9,121.8 795.1,104.7 795.3,108.4 795.5,107.8 795.7,109.0 795.8,92.5 796.0,101.0 796.2,106.2 796.4,92.1 796.6,106.5 796.8,106.4 797.0,97.3 797.2,117.8 797.4,98.7 797.6,119.1 797.8,103.3 798.0,110.5 798.2,106.9 798.4,117.1 798.6,109.8 798.8,106.2 799.0,111.2 799.2,105.3 799.4,106.8 799.6,95.0 799.8,103.0 800.0,110.7 800.2,101.0 800.4,116.6 800.6,108.8 800.8,99.9 801.0,111.7 801.2,115.7 801.4,105.1 801.6,106.1 801.8,106.7 802.0,101.1 802.2,118.9 802.4,101.2 802.6,109.3 802.8,112.0 803.0,99.6 803.2,110.8 803.4,99.4 803.6,94.2 803.8,107.7 804.0,101.5 804.2,104.1 804.4,104.0 804.6,100.8 804.8,97.9 805.0,113.6 805.2,92.6 805.4,114.8 805.6,103.1 805.8,100.9 806.0,115.3 806.2,107.3 806.4,101.7 806.6,112.3 806.8,107.4 807.0,102.8 807.2,101.2 807.4,106.2 807.6,105.6 807.8,107.6 807.9,92.3 808.1,112.2 808.3,101.8 808.5,103.5 808.7,112.8 808.9,98.4 809.1,106.9 809.3,102.9 809.5,109.9 809.7,111.1 809.9,109.0 810.1,108.2 810.3,107.4 810.5,104.0 810.7,91.5 810.9,109.1 811.1,99.8 811.3,100.9 811.5,109.7 811.7,104.9 811.9,105.4 812.1,94.8 812.3,114.5 812.5,105.3 812.7,106.2 812.9,103.9 813.1,101.6 813.3,100.2 813.5,102.3 813.7,104.8 813.9,105.9 814.1,106.7 814.3,107.0 814.5,93.3 814.7,109.1 814.9,89.8 815.1,116.0 815.3,98.0 815.5,110.8 815.7,99.5 815.9,110.0 816.1,102.8 816.3,107.3 816.5,104.8 816.7,115.1 816.9,97.2 817.1,116.7 817.3,108.8 817.5,113.1 817.7,97.7 817.9,128.1 818.1,96.3 818.3,109.4 818.5,100.5 818.7,107.2 818.9,97.4 819.1,109.7 819.3,110.0 819.5,102.9 819.7,102.0 819.9,115.6 820.0,106.9 820.2,115.0 820.4,102.9 820.6,118.3 820.8,105.1 821.0,114.6 821.2,100.2 821.4,115.4 821.6,106.2 821.8,95.0 822.0,109.6 822.2,106.8 822.4,100.1 822.6,106.3 822.8,102.5 823.0,115.3 823.2,90.5 823.4,122.2 823.6,109.8 823.8,106.7 824.0,100.9 824.2,112.1 824.4,98.9 824.6,110.3 824.8,115.4 825.0,99.0 825.2,105.1 825.4,110.7 825.6,94.8 825.8,96.6 826.0,95.2 826.2,117.3 826.4,103.4 826.6,103.5 826.8,99.6 827.0,102.8 827.2,104.9 827.4,102.4 827.6,109.3 827.8,98.5 828.0,100.6 828.2,102.6 828.4,108.0 828.6,109.0 828.8,93.3 829.0,111.1 829.2,103.5 829.4,93.3 829.6,91.3 829.8,104.7 830.0,100.9 830.2,100.1 830.4,113.4 830.6,97.8 830.8,100.0 831.0,105.5 831.2,110.4 831.4,98.9 831.6,102.7 831.8,110.3 831.9,110.6 832.1,99.7 832.3,102.9 832.5,108.2 832.7,107.3 832.9,94.7 833.1,112.2 833.3,93.8 833.5,109.8 833.7,98.6 833.9,109.1 834.1,101.4 834.3,105.7 834.5,108.4 834.7,114.7 834.9,103.4 835.1,105.6 835.3,109.5 835.5,105.3 835.7,110.2 835.9,122.0 836.1,101.9 836.3,114.3 836.5,104.5 836.7,108.2 836.9,97.4 837.1,96.8 837.3,114.2 837.5,112.8 837.7,104.2 837.9,104.1 838.1,109.5 838.3,110.6 838.5,108.3 838.7,113.6 838.9,103.0 839.1,108.5 839.3,105.3 839.5,120.5 839.7,99.2 839.9,111.7 840.1,112.1 840.3,107.0 840.5,96.1 840.7,101.4 840.9,107.3 841.1,107.4 841.3,105.6 841.5,122.8 841.7,99.3 841.9,101.8 842.1,105.0 842.3,117.3 842.5,101.8 842.7,106.9 842.9,103.8 843.1,112.2 843.3,105.5 843.5,92.3 843.7,115.2 843.9,99.0 844.0,105.1 844.2,105.2 844.4,102.7 844.6,108.0 844.8,97.0 845.0,107.2 845.2,105.3 845.4,105.8 845.6,109.0 845.8,109.7 846.0,107.5 846.2,94.0 846.4,110.3 846.6,98.2 846.8,107.6 847.0,110.4 847.2,106.8 847.4,111.1 847.6,108.3 847.8,109.3 848.0,93.5 848.2,105.6 848.4,106.2 848.6,107.5 848.8,109.0 849.0,106.4 849.2,113.3 849.4,96.2 849.6,112.5 849.8,109.7 850.0,101.7" fill="none" stroke="#5b6673" stroke-width="0.7" stroke-linejoin="round"/><text x="846.0" y="90.0" font-size="12.5" font-weight="400" fill="#5b6673" text-anchor="end">0.264</text><rect x="30.0" y="168.0" width="820.0" height="62.0" rx="6" fill="#fff" stroke="#d7dfe6" stroke-width="1"/><text x="30.0" y="160.0" font-size="14" font-weight="700" fill="#0878b9" text-anchor="start">振幅包络 AE：每段的最高峰</text><polyline points="30.0,200.7 36.5,200.7 42.9,196.0 49.4,188.6 55.8,188.6 62.3,194.6 68.7,190.6 75.2,190.6 81.7,190.3 88.1,190.3 94.6,180.4 101.0,180.4 107.5,187.2 113.9,183.5 120.4,183.5 126.9,198.9 133.3,197.2 139.8,196.3 146.2,196.3 152.7,198.9 159.1,196.0 165.6,191.1 172.0,191.1 178.5,196.4 185.0,196.5 191.4,198.1 197.9,194.9 204.3,194.9 210.8,197.2 217.2,200.3 223.7,186.3 230.2,186.3 236.6,187.5 243.1,187.5 249.5,189.2 256.0,194.5 262.4,188.4 268.9,183.0 275.4,183.0 281.8,187.2 288.3,187.2 294.7,188.7 301.2,185.0 307.6,185.0 314.1,174.6 320.6,174.6 327.0,187.7 333.5,175.2 339.9,175.2 346.4,186.9 352.8,187.3 359.3,189.5 365.7,189.2 372.2,189.2 378.7,191.6 385.1,190.6 391.6,189.5 398.0,189.1 404.5,189.1 410.9,190.9 417.4,196.3 423.9,195.4 430.3,182.1 436.8,182.1 443.2,193.9 449.7,194.0 456.1,192.1 462.6,192.1 469.1,195.2 475.5,195.2 482.0,195.8 488.4,193.7 494.9,192.2 501.3,192.2 507.8,195.2 514.3,190.3 520.7,190.3 527.2,193.6 533.6,193.6 540.1,193.0 546.5,193.0 553.0,195.7 559.4,195.7 565.9,200.0 572.4,200.0 578.8,192.8 585.3,192.8 591.7,202.1 598.2,202.1 604.6,202.3 611.1,199.2 617.6,198.9 624.0,194.8 630.5,193.8 636.9,193.8 643.4,191.3 649.8,191.3 656.3,195.7 662.8,197.2 669.2,199.8 675.7,197.5 682.1,197.5 688.6,202.9 695.0,198.3 701.5,198.3 708.0,199.9 714.4,199.9 720.9,202.7 727.3,201.2 733.8,199.4 740.2,199.4 746.7,202.2 753.1,198.5 759.6,197.7 766.1,197.7 772.5,199.9 779.0,199.0 785.4,186.1 791.9,186.1 798.3,191.7 804.8,199.0 811.3,196.6 817.7,195.5 824.2,183.1 830.6,183.1 837.1,195.4 843.5,200.1 850.0,200.1" fill="none" stroke="#0878b9" stroke-width="1.7" stroke-linejoin="round"/><text x="846.0" y="182.0" font-size="12.5" font-weight="400" fill="#5b6673" text-anchor="end">0.268</text><rect x="30.0" y="260.0" width="820.0" height="62.0" rx="6" fill="#fff" stroke="#d7dfe6" stroke-width="1"/><text x="30.0" y="252.0" font-size="14" font-weight="700" fill="#3b8f68" text-anchor="start">均方根 RMS：每段的整体强弱</text><polyline points="30.0,288.9 36.5,284.8 42.9,280.1 49.4,274.6 55.8,275.0 62.3,278.5 68.7,274.6 75.2,270.4 81.7,274.1 88.1,276.0 94.6,272.0 101.0,267.0 107.5,268.8 113.9,275.5 120.4,281.6 126.9,287.9 133.3,285.2 139.8,282.6 146.2,284.7 152.7,287.0 159.1,288.7 165.6,285.4 172.0,284.4 178.5,284.1 185.0,284.1 191.4,286.0 197.9,281.4 204.3,280.1 210.8,283.0 217.2,285.0 223.7,281.7 230.2,274.4 236.6,272.2 243.1,273.8 249.5,279.0 256.0,279.4 262.4,274.6 268.9,271.3 275.4,273.0 281.8,271.7 288.3,269.8 294.7,273.5 301.2,270.3 307.6,267.9 314.1,268.5 320.6,268.0 327.0,266.6 333.5,268.3 339.9,267.5 346.4,267.7 352.8,274.1 359.3,274.0 365.7,271.5 372.2,268.4 378.7,270.0 385.1,272.2 391.6,270.0 398.0,269.8 404.5,272.4 410.9,279.6 417.4,284.6 423.9,284.4 430.3,282.3 436.8,283.3 443.2,285.9 449.7,281.6 456.1,280.4 462.6,285.8 469.1,287.3 475.5,285.2 482.0,283.6 488.4,281.8 494.9,280.7 501.3,280.9 507.8,280.8 514.3,279.7 520.7,279.0 527.2,280.9 533.6,281.1 540.1,281.0 546.5,283.8 553.0,286.2 559.4,287.9 565.9,290.1 572.4,291.4 578.8,288.9 585.3,287.7 591.7,288.4 598.2,288.8 604.6,289.5 611.1,290.0 617.6,289.2 624.0,286.6 630.5,286.0 636.9,287.8 643.4,286.4 649.8,286.6 656.3,290.3 662.8,289.0 669.2,287.0 675.7,289.6 682.1,294.3 688.6,295.4 695.0,290.8 701.5,289.1 708.0,290.8 714.4,293.0 720.9,294.2 727.3,291.3 733.8,288.0 740.2,288.3 746.7,292.0 753.1,293.1 759.6,290.1 766.1,288.5 772.5,289.3 779.0,288.8 785.4,285.6 791.9,282.9 798.3,283.1 804.8,283.5 811.3,283.6 817.7,284.5 824.2,281.6 830.6,278.9 837.1,283.6 843.5,287.8 850.0,288.1" fill="none" stroke="#3b8f68" stroke-width="1.7" stroke-linejoin="round"/><text x="846.0" y="274.0" font-size="12.5" font-weight="400" fill="#5b6673" text-anchor="end">0.089</text><rect x="30.0" y="352.0" width="820.0" height="62.0" rx="6" fill="#fff" stroke="#d7dfe6" stroke-width="1"/><text x="30.0" y="344.0" font-size="14" font-weight="700" fill="#a5761a" text-anchor="start">过零率 ZCR：每段穿过中线的密度</text><polyline points="30.0,384.3 36.5,382.5 42.9,382.5 49.4,385.4 55.8,386.0 62.3,384.9 68.7,384.9 75.2,384.9 81.7,381.4 88.1,377.9 94.6,380.2 101.0,384.9 107.5,380.2 113.9,377.9 120.4,380.2 126.9,375.0 133.3,376.7 139.8,376.1 146.2,374.4 152.7,379.6 159.1,376.7 165.6,375.0 172.0,374.4 178.5,375.5 185.0,378.5 191.4,379.0 197.9,372.6 204.3,370.9 210.8,374.4 217.2,379.0 223.7,382.5 230.2,382.0 236.6,382.5 243.1,384.3 249.5,386.0 256.0,386.0 262.4,384.3 268.9,380.2 275.4,380.8 281.8,383.7 288.3,384.9 294.7,375.5 301.2,370.9 307.6,369.7 314.1,374.4 320.6,386.0 327.0,384.9 333.5,382.5 339.9,383.7 346.4,383.1 352.8,375.5 359.3,373.2 365.7,381.4 372.2,387.2 378.7,383.7 385.1,380.8 391.6,383.1 398.0,386.6 404.5,379.6 410.9,378.5 417.4,383.7 423.9,377.3 430.3,366.2 436.8,369.1 443.2,371.5 449.7,361.6 456.1,366.2 462.6,370.9 469.1,373.2 475.5,380.2 482.0,373.8 488.4,369.7 494.9,375.0 501.3,370.3 507.8,361.6 514.3,362.7 520.7,367.4 527.2,369.7 533.6,368.0 540.1,367.4 546.5,366.2 553.0,362.7 559.4,368.0 565.9,373.8 572.4,368.0 578.8,364.5 585.3,363.3 591.7,366.2 598.2,369.1 604.6,367.4 611.1,369.7 617.6,370.9 624.0,371.5 630.5,376.7 636.9,377.3 643.4,372.6 649.8,365.1 656.3,365.6 662.8,371.5 669.2,372.0 675.7,375.5 682.1,376.7 688.6,373.8 695.0,372.0 701.5,373.2 708.0,369.7 714.4,372.6 720.9,375.5 727.3,368.5 733.8,373.8 740.2,377.3 746.7,370.3 753.1,368.5 759.6,372.0 766.1,367.4 772.5,365.6 779.0,370.3 785.4,370.3 791.9,372.6 798.3,372.6 804.8,376.1 811.3,372.6 817.7,358.6 824.2,361.0 830.6,372.0 837.1,376.1 843.5,377.9 850.0,368.0" fill="none" stroke="#a5761a" stroke-width="1.7" stroke-linejoin="round"/><text x="846.0" y="366.0" font-size="12.5" font-weight="400" fill="#5b6673" text-anchor="end">0.093</text><text x="30.0" y="450.0" font-size="14" font-weight="400" fill="#5b6673" text-anchor="start">横轴都是同一段 3 秒；右上角是这条曲线的最大值。</text>
</svg>
